M48
METRIC,TZ
T1C0.400
T2C0.850
T3C1.000
T4C1.520
%
G90
G05
T1
X87345Y-189806
X97345Y-129806
X99505Y-148896
X99595Y-130556
X101595Y-148056
X103283Y-137806
X118345Y-130556
X119845Y-129806
X120345Y-148056
X121755Y-148896
X121995Y-137796
X125845Y-128806
X125845Y-136806
X126393Y-191354
X126845Y-92556
X128595Y-189806
X131595Y-82670
X131595Y-85349
X134980Y-188671
X151095Y-189806
X154095Y-109056
X154095Y-112806
X156845Y-169806
X157095Y-97806
X157095Y-119806
X158095Y-187056
X158345Y-170806
X159470Y-188431
X160345Y-189806
X166595Y-170806
X168095Y-169806
X173845Y-179556
X176345Y-179556
X177595Y-158056
X177595Y-162806
X177795Y-182806
X178595Y-158056
X178595Y-162806
X181595Y-145306
X183095Y-145306
X184595Y-145306
X185595Y-114806
X185595Y-125806
X186095Y-145306
X187595Y-112806
X190345Y-113806
X190345Y-115876
X190345Y-117056
X190345Y-118306
X190345Y-119556
X190345Y-120806
X190345Y-122056
X190345Y-123306
X190345Y-124556
X190960Y-188671
X191845Y-165806
X192595Y-141946
X193895Y-142671
X194095Y-166806
X194295Y-82670
X201095Y-147306
X206745Y-139506
X208015Y-138726
X209285Y-139556
X220715Y-137926
X221845Y-147306
X221985Y-137106
X221985Y-141946
X223255Y-142646
X227977Y-139553
X232551Y-191350
X233345Y-92306
X234595Y-189806
X235595Y-166806
X236295Y-82660
X236297Y-85354
X237095Y-165806
X238595Y-113806
X238595Y-115876
X238595Y-117056
X238595Y-118306
X238595Y-119556
X238595Y-120806
X238595Y-122056
X238595Y-123306
X238595Y-124556
X238795Y-140756
X240345Y-112806
X240345Y-126306
X240345Y-145806
X240345Y-148806
X240345Y-164806
X240345Y-166806
X240961Y-188672
X245845Y-113806
X245845Y-126306
X245845Y-145806
X245845Y-148806
X247345Y-112806
X247345Y-166806
X247395Y-140756
X285095Y-140756
X286695Y-139456
X287675Y-138726
X288695Y-137926
X289720Y-137181
X298845Y-112806
X298845Y-166806
X299845Y-113806
X299845Y-165806
X300199Y-82660
X300435Y-142646
X300495Y-147306
X301485Y-141916
X303479Y-188672
X304395Y-140756
X312745Y-139456
X314015Y-138726
X326715Y-137926
X327595Y-147306
X327985Y-137196
X327985Y-141916
X329255Y-142646
X338806Y-191345
X339345Y-92306
X340595Y-189806
X342811Y-85340
X346345Y-112806
X346345Y-166806
X351845Y-113806
X351845Y-165806
T2
X89620Y-75550
X89620Y-98450
X89620Y-181550
X89620Y-204450
X97370Y-75550
X97370Y-98450
X97370Y-181550
X97370Y-204450
X120620Y-75550
X120620Y-98450
X120620Y-181550
X120620Y-204450
X128370Y-75550
X128370Y-98450
X128370Y-181550
X128370Y-204450
X195620Y-181550
X195620Y-204450
X195620Y-75550
X195620Y-98450
X203370Y-181550
X203370Y-204450
X203370Y-75550
X203370Y-98450
X226620Y-181550
X226620Y-204450
X226620Y-75550
X226620Y-98450
X234370Y-181550
X234370Y-204450
X234370Y-75550
X234370Y-98450
X301620Y-75550
X301620Y-98450
X301620Y-181550
X301620Y-204450
X309370Y-75550
X309370Y-98450
X309370Y-181550
X309370Y-204450
X332620Y-75550
X332620Y-98450
X332620Y-181550
X332620Y-204450
X340370Y-75550
X340370Y-98450
X340370Y-181550
X340370Y-204450
T3
X154100Y-115876
X154100Y-118416
X154100Y-120956
X154100Y-123496
X154100Y-126036
X154100Y-128576
X154100Y-131116
X154100Y-133656
X154100Y-136196
X154100Y-138736
X154100Y-141276
X154100Y-143816
X154100Y-146356
X154100Y-148896
X154100Y-151436
X154100Y-153976
X154100Y-156516
X154100Y-159056
X154100Y-161596
X154100Y-164136
X169900Y-115876
X169900Y-118416
X169900Y-120956
X169900Y-123496
X169900Y-126036
X169900Y-128576
X169900Y-131116
X169900Y-133656
X169900Y-136196
X169900Y-138736
X169900Y-141276
X169900Y-143816
X169900Y-146356
X169900Y-148896
X169900Y-151436
X169900Y-153976
X169900Y-156516
X169900Y-159056
X169900Y-161596
X169900Y-164136
T4
X154375Y-197506
X159455Y-197506
X164535Y-197506
X169615Y-197506
T0
M30
