G04 #@! TF.GenerationSoftware,KiCad,Pcbnew,(6.0.10)*
G04 #@! TF.CreationDate,2023-03-21T22:54:38-07:00*
G04 #@! TF.ProjectId,Test,54657374-2e6b-4696-9361-645f70636258,rev?*
G04 #@! TF.SameCoordinates,Original*
G04 #@! TF.FileFunction,Legend,Top*
G04 #@! TF.FilePolarity,Positive*
%FSLAX46Y46*%
G04 Gerber Fmt 4.6, Leading zero omitted, Abs format (unit mm)*
G04 Created by KiCad (PCBNEW (6.0.10)) date 2023-03-21 22:54:38*
%MOMM*%
%LPD*%
G01*
G04 APERTURE LIST*
%ADD10C,0.150000*%
%ADD11C,0.203000*%
%ADD12C,0.200000*%
%ADD13C,0.120000*%
G04 APERTURE END LIST*
D10*
X107756904Y-192452492D02*
X107756904Y-193262016D01*
X107804523Y-193357254D01*
X107852142Y-193404873D01*
X107947380Y-193452492D01*
X108137857Y-193452492D01*
X108233095Y-193404873D01*
X108280714Y-193357254D01*
X108328333Y-193262016D01*
X108328333Y-192452492D01*
X109328333Y-193452492D02*
X108756904Y-193452492D01*
X109042619Y-193452492D02*
X109042619Y-192452492D01*
X108947380Y-192595350D01*
X108852142Y-192690588D01*
X108756904Y-192738207D01*
X110233095Y-192452492D02*
X109756904Y-192452492D01*
X109709285Y-192928683D01*
X109756904Y-192881064D01*
X109852142Y-192833445D01*
X110090238Y-192833445D01*
X110185476Y-192881064D01*
X110233095Y-192928683D01*
X110280714Y-193023921D01*
X110280714Y-193262016D01*
X110233095Y-193357254D01*
X110185476Y-193404873D01*
X110090238Y-193452492D01*
X109852142Y-193452492D01*
X109756904Y-193404873D01*
X109709285Y-193357254D01*
D11*
X104271383Y-181333380D02*
X104271383Y-180333380D01*
X104604716Y-181047666D01*
X104938050Y-180333380D01*
X104938050Y-181333380D01*
X105938050Y-181333380D02*
X105366621Y-181333380D01*
X105652335Y-181333380D02*
X105652335Y-180333380D01*
X105557097Y-180476238D01*
X105461859Y-180571476D01*
X105366621Y-180619095D01*
X107128526Y-180952428D02*
X107890430Y-180952428D01*
X109652335Y-181333380D02*
X109080907Y-181333380D01*
X109366621Y-181333380D02*
X109366621Y-180333380D01*
X109271383Y-180476238D01*
X109176145Y-180571476D01*
X109080907Y-180619095D01*
X110128526Y-181285761D02*
X110128526Y-181333380D01*
X110080907Y-181428619D01*
X110033288Y-181476238D01*
X111033288Y-180333380D02*
X110557097Y-180333380D01*
X110509478Y-180809571D01*
X110557097Y-180761952D01*
X110652335Y-180714333D01*
X110890430Y-180714333D01*
X110985669Y-180761952D01*
X111033288Y-180809571D01*
X111080907Y-180904809D01*
X111080907Y-181142904D01*
X111033288Y-181238142D01*
X110985669Y-181285761D01*
X110890430Y-181333380D01*
X110652335Y-181333380D01*
X110557097Y-181285761D01*
X110509478Y-181238142D01*
X111509478Y-181333380D02*
X111509478Y-180666714D01*
X111509478Y-180761952D02*
X111557097Y-180714333D01*
X111652335Y-180666714D01*
X111795192Y-180666714D01*
X111890430Y-180714333D01*
X111938050Y-180809571D01*
X111938050Y-181333380D01*
X111938050Y-180809571D02*
X111985669Y-180714333D01*
X112080907Y-180666714D01*
X112223764Y-180666714D01*
X112319002Y-180714333D01*
X112366621Y-180809571D01*
X112366621Y-181333380D01*
X112842811Y-181333380D02*
X112842811Y-180666714D01*
X112842811Y-180761952D02*
X112890430Y-180714333D01*
X112985669Y-180666714D01*
X113128526Y-180666714D01*
X113223764Y-180714333D01*
X113271383Y-180809571D01*
X113271383Y-181333380D01*
X113271383Y-180809571D02*
X113319002Y-180714333D01*
X113414240Y-180666714D01*
X113557097Y-180666714D01*
X113652335Y-180714333D01*
X113699954Y-180809571D01*
X113699954Y-181333380D01*
X104296383Y-183258380D02*
X104296383Y-182258380D01*
X104629716Y-182972666D01*
X104963050Y-182258380D01*
X104963050Y-183258380D01*
X105391621Y-182353619D02*
X105439240Y-182306000D01*
X105534478Y-182258380D01*
X105772573Y-182258380D01*
X105867811Y-182306000D01*
X105915430Y-182353619D01*
X105963050Y-182448857D01*
X105963050Y-182544095D01*
X105915430Y-182686952D01*
X105344002Y-183258380D01*
X105963050Y-183258380D01*
X107153526Y-182877428D02*
X107915430Y-182877428D01*
X109582097Y-182591714D02*
X109582097Y-183258380D01*
X109344002Y-182210761D02*
X109105907Y-182925047D01*
X109724954Y-182925047D01*
X110153526Y-183210761D02*
X110153526Y-183258380D01*
X110105907Y-183353619D01*
X110058288Y-183401238D01*
X110772573Y-182258380D02*
X110867811Y-182258380D01*
X110963050Y-182306000D01*
X111010669Y-182353619D01*
X111058288Y-182448857D01*
X111105907Y-182639333D01*
X111105907Y-182877428D01*
X111058288Y-183067904D01*
X111010669Y-183163142D01*
X110963050Y-183210761D01*
X110867811Y-183258380D01*
X110772573Y-183258380D01*
X110677335Y-183210761D01*
X110629716Y-183163142D01*
X110582097Y-183067904D01*
X110534478Y-182877428D01*
X110534478Y-182639333D01*
X110582097Y-182448857D01*
X110629716Y-182353619D01*
X110677335Y-182306000D01*
X110772573Y-182258380D01*
X111534478Y-183258380D02*
X111534478Y-182591714D01*
X111534478Y-182686952D02*
X111582097Y-182639333D01*
X111677335Y-182591714D01*
X111820192Y-182591714D01*
X111915430Y-182639333D01*
X111963050Y-182734571D01*
X111963050Y-183258380D01*
X111963050Y-182734571D02*
X112010669Y-182639333D01*
X112105907Y-182591714D01*
X112248764Y-182591714D01*
X112344002Y-182639333D01*
X112391621Y-182734571D01*
X112391621Y-183258380D01*
X112867811Y-183258380D02*
X112867811Y-182591714D01*
X112867811Y-182686952D02*
X112915430Y-182639333D01*
X113010669Y-182591714D01*
X113153526Y-182591714D01*
X113248764Y-182639333D01*
X113296383Y-182734571D01*
X113296383Y-183258380D01*
X113296383Y-182734571D02*
X113344002Y-182639333D01*
X113439240Y-182591714D01*
X113582097Y-182591714D01*
X113677335Y-182639333D01*
X113724954Y-182734571D01*
X113724954Y-183258380D01*
D10*
X213661904Y-192452380D02*
X213661904Y-193261904D01*
X213709523Y-193357142D01*
X213757142Y-193404761D01*
X213852380Y-193452380D01*
X214042857Y-193452380D01*
X214138095Y-193404761D01*
X214185714Y-193357142D01*
X214233333Y-193261904D01*
X214233333Y-192452380D01*
X215233333Y-193452380D02*
X214661904Y-193452380D01*
X214947619Y-193452380D02*
X214947619Y-192452380D01*
X214852380Y-192595238D01*
X214757142Y-192690476D01*
X214661904Y-192738095D01*
X215566666Y-192452380D02*
X216233333Y-192452380D01*
X215804761Y-193452380D01*
D11*
X210271383Y-181333380D02*
X210271383Y-180333380D01*
X210604716Y-181047666D01*
X210938050Y-180333380D01*
X210938050Y-181333380D01*
X211938050Y-181333380D02*
X211366621Y-181333380D01*
X211652335Y-181333380D02*
X211652335Y-180333380D01*
X211557097Y-180476238D01*
X211461859Y-180571476D01*
X211366621Y-180619095D01*
X213128526Y-180952428D02*
X213890430Y-180952428D01*
X215652335Y-181333380D02*
X215080907Y-181333380D01*
X215366621Y-181333380D02*
X215366621Y-180333380D01*
X215271383Y-180476238D01*
X215176145Y-180571476D01*
X215080907Y-180619095D01*
X216128526Y-181285761D02*
X216128526Y-181333380D01*
X216080907Y-181428619D01*
X216033288Y-181476238D01*
X217033288Y-180333380D02*
X216557097Y-180333380D01*
X216509478Y-180809571D01*
X216557097Y-180761952D01*
X216652335Y-180714333D01*
X216890430Y-180714333D01*
X216985669Y-180761952D01*
X217033288Y-180809571D01*
X217080907Y-180904809D01*
X217080907Y-181142904D01*
X217033288Y-181238142D01*
X216985669Y-181285761D01*
X216890430Y-181333380D01*
X216652335Y-181333380D01*
X216557097Y-181285761D01*
X216509478Y-181238142D01*
X217509478Y-181333380D02*
X217509478Y-180666714D01*
X217509478Y-180761952D02*
X217557097Y-180714333D01*
X217652335Y-180666714D01*
X217795192Y-180666714D01*
X217890430Y-180714333D01*
X217938050Y-180809571D01*
X217938050Y-181333380D01*
X217938050Y-180809571D02*
X217985669Y-180714333D01*
X218080907Y-180666714D01*
X218223764Y-180666714D01*
X218319002Y-180714333D01*
X218366621Y-180809571D01*
X218366621Y-181333380D01*
X218842811Y-181333380D02*
X218842811Y-180666714D01*
X218842811Y-180761952D02*
X218890430Y-180714333D01*
X218985669Y-180666714D01*
X219128526Y-180666714D01*
X219223764Y-180714333D01*
X219271383Y-180809571D01*
X219271383Y-181333380D01*
X219271383Y-180809571D02*
X219319002Y-180714333D01*
X219414240Y-180666714D01*
X219557097Y-180666714D01*
X219652335Y-180714333D01*
X219699954Y-180809571D01*
X219699954Y-181333380D01*
X210296383Y-183258380D02*
X210296383Y-182258380D01*
X210629716Y-182972666D01*
X210963050Y-182258380D01*
X210963050Y-183258380D01*
X211391621Y-182353619D02*
X211439240Y-182306000D01*
X211534478Y-182258380D01*
X211772573Y-182258380D01*
X211867811Y-182306000D01*
X211915430Y-182353619D01*
X211963050Y-182448857D01*
X211963050Y-182544095D01*
X211915430Y-182686952D01*
X211344002Y-183258380D01*
X211963050Y-183258380D01*
X213153526Y-182877428D02*
X213915430Y-182877428D01*
X215582097Y-182591714D02*
X215582097Y-183258380D01*
X215344002Y-182210761D02*
X215105907Y-182925047D01*
X215724954Y-182925047D01*
X216153526Y-183210761D02*
X216153526Y-183258380D01*
X216105907Y-183353619D01*
X216058288Y-183401238D01*
X216772573Y-182258380D02*
X216867811Y-182258380D01*
X216963050Y-182306000D01*
X217010669Y-182353619D01*
X217058288Y-182448857D01*
X217105907Y-182639333D01*
X217105907Y-182877428D01*
X217058288Y-183067904D01*
X217010669Y-183163142D01*
X216963050Y-183210761D01*
X216867811Y-183258380D01*
X216772573Y-183258380D01*
X216677335Y-183210761D01*
X216629716Y-183163142D01*
X216582097Y-183067904D01*
X216534478Y-182877428D01*
X216534478Y-182639333D01*
X216582097Y-182448857D01*
X216629716Y-182353619D01*
X216677335Y-182306000D01*
X216772573Y-182258380D01*
X217534478Y-183258380D02*
X217534478Y-182591714D01*
X217534478Y-182686952D02*
X217582097Y-182639333D01*
X217677335Y-182591714D01*
X217820192Y-182591714D01*
X217915430Y-182639333D01*
X217963050Y-182734571D01*
X217963050Y-183258380D01*
X217963050Y-182734571D02*
X218010669Y-182639333D01*
X218105907Y-182591714D01*
X218248764Y-182591714D01*
X218344002Y-182639333D01*
X218391621Y-182734571D01*
X218391621Y-183258380D01*
X218867811Y-183258380D02*
X218867811Y-182591714D01*
X218867811Y-182686952D02*
X218915430Y-182639333D01*
X219010669Y-182591714D01*
X219153526Y-182591714D01*
X219248764Y-182639333D01*
X219296383Y-182734571D01*
X219296383Y-183258380D01*
X219296383Y-182734571D02*
X219344002Y-182639333D01*
X219439240Y-182591714D01*
X219582097Y-182591714D01*
X219677335Y-182639333D01*
X219724954Y-182734571D01*
X219724954Y-183258380D01*
D10*
X319756904Y-192452380D02*
X319756904Y-193261904D01*
X319804523Y-193357142D01*
X319852142Y-193404761D01*
X319947380Y-193452380D01*
X320137857Y-193452380D01*
X320233095Y-193404761D01*
X320280714Y-193357142D01*
X320328333Y-193261904D01*
X320328333Y-192452380D01*
X321328333Y-193452380D02*
X320756904Y-193452380D01*
X321042619Y-193452380D02*
X321042619Y-192452380D01*
X320947380Y-192595238D01*
X320852142Y-192690476D01*
X320756904Y-192738095D01*
X322185476Y-192785714D02*
X322185476Y-193452380D01*
X321947380Y-192404761D02*
X321709285Y-193119047D01*
X322328333Y-193119047D01*
D11*
X316271383Y-181333380D02*
X316271383Y-180333380D01*
X316604716Y-181047666D01*
X316938050Y-180333380D01*
X316938050Y-181333380D01*
X317938050Y-181333380D02*
X317366621Y-181333380D01*
X317652335Y-181333380D02*
X317652335Y-180333380D01*
X317557097Y-180476238D01*
X317461859Y-180571476D01*
X317366621Y-180619095D01*
X319128526Y-180952428D02*
X319890430Y-180952428D01*
X321652335Y-181333380D02*
X321080907Y-181333380D01*
X321366621Y-181333380D02*
X321366621Y-180333380D01*
X321271383Y-180476238D01*
X321176145Y-180571476D01*
X321080907Y-180619095D01*
X322128526Y-181285761D02*
X322128526Y-181333380D01*
X322080907Y-181428619D01*
X322033288Y-181476238D01*
X323033288Y-180333380D02*
X322557097Y-180333380D01*
X322509478Y-180809571D01*
X322557097Y-180761952D01*
X322652335Y-180714333D01*
X322890430Y-180714333D01*
X322985669Y-180761952D01*
X323033288Y-180809571D01*
X323080907Y-180904809D01*
X323080907Y-181142904D01*
X323033288Y-181238142D01*
X322985669Y-181285761D01*
X322890430Y-181333380D01*
X322652335Y-181333380D01*
X322557097Y-181285761D01*
X322509478Y-181238142D01*
X323509478Y-181333380D02*
X323509478Y-180666714D01*
X323509478Y-180761952D02*
X323557097Y-180714333D01*
X323652335Y-180666714D01*
X323795192Y-180666714D01*
X323890430Y-180714333D01*
X323938050Y-180809571D01*
X323938050Y-181333380D01*
X323938050Y-180809571D02*
X323985669Y-180714333D01*
X324080907Y-180666714D01*
X324223764Y-180666714D01*
X324319002Y-180714333D01*
X324366621Y-180809571D01*
X324366621Y-181333380D01*
X324842811Y-181333380D02*
X324842811Y-180666714D01*
X324842811Y-180761952D02*
X324890430Y-180714333D01*
X324985669Y-180666714D01*
X325128526Y-180666714D01*
X325223764Y-180714333D01*
X325271383Y-180809571D01*
X325271383Y-181333380D01*
X325271383Y-180809571D02*
X325319002Y-180714333D01*
X325414240Y-180666714D01*
X325557097Y-180666714D01*
X325652335Y-180714333D01*
X325699954Y-180809571D01*
X325699954Y-181333380D01*
X316296383Y-183258380D02*
X316296383Y-182258380D01*
X316629716Y-182972666D01*
X316963050Y-182258380D01*
X316963050Y-183258380D01*
X317391621Y-182353619D02*
X317439240Y-182306000D01*
X317534478Y-182258380D01*
X317772573Y-182258380D01*
X317867811Y-182306000D01*
X317915430Y-182353619D01*
X317963050Y-182448857D01*
X317963050Y-182544095D01*
X317915430Y-182686952D01*
X317344002Y-183258380D01*
X317963050Y-183258380D01*
X319153526Y-182877428D02*
X319915430Y-182877428D01*
X321582097Y-182591714D02*
X321582097Y-183258380D01*
X321344002Y-182210761D02*
X321105907Y-182925047D01*
X321724954Y-182925047D01*
X322153526Y-183210761D02*
X322153526Y-183258380D01*
X322105907Y-183353619D01*
X322058288Y-183401238D01*
X322772573Y-182258380D02*
X322867811Y-182258380D01*
X322963050Y-182306000D01*
X323010669Y-182353619D01*
X323058288Y-182448857D01*
X323105907Y-182639333D01*
X323105907Y-182877428D01*
X323058288Y-183067904D01*
X323010669Y-183163142D01*
X322963050Y-183210761D01*
X322867811Y-183258380D01*
X322772573Y-183258380D01*
X322677335Y-183210761D01*
X322629716Y-183163142D01*
X322582097Y-183067904D01*
X322534478Y-182877428D01*
X322534478Y-182639333D01*
X322582097Y-182448857D01*
X322629716Y-182353619D01*
X322677335Y-182306000D01*
X322772573Y-182258380D01*
X323534478Y-183258380D02*
X323534478Y-182591714D01*
X323534478Y-182686952D02*
X323582097Y-182639333D01*
X323677335Y-182591714D01*
X323820192Y-182591714D01*
X323915430Y-182639333D01*
X323963050Y-182734571D01*
X323963050Y-183258380D01*
X323963050Y-182734571D02*
X324010669Y-182639333D01*
X324105907Y-182591714D01*
X324248764Y-182591714D01*
X324344002Y-182639333D01*
X324391621Y-182734571D01*
X324391621Y-183258380D01*
X324867811Y-183258380D02*
X324867811Y-182591714D01*
X324867811Y-182686952D02*
X324915430Y-182639333D01*
X325010669Y-182591714D01*
X325153526Y-182591714D01*
X325248764Y-182639333D01*
X325296383Y-182734571D01*
X325296383Y-183258380D01*
X325296383Y-182734571D02*
X325344002Y-182639333D01*
X325439240Y-182591714D01*
X325582097Y-182591714D01*
X325677335Y-182639333D01*
X325724954Y-182734571D01*
X325724954Y-183258380D01*
D10*
X319756904Y-86452492D02*
X319756904Y-87262016D01*
X319804523Y-87357254D01*
X319852142Y-87404873D01*
X319947380Y-87452492D01*
X320137857Y-87452492D01*
X320233095Y-87404873D01*
X320280714Y-87357254D01*
X320328333Y-87262016D01*
X320328333Y-86452492D01*
X321328333Y-87452492D02*
X320756904Y-87452492D01*
X321042619Y-87452492D02*
X321042619Y-86452492D01*
X320947380Y-86595350D01*
X320852142Y-86690588D01*
X320756904Y-86738207D01*
X321661666Y-86452492D02*
X322280714Y-86452492D01*
X321947380Y-86833445D01*
X322090238Y-86833445D01*
X322185476Y-86881064D01*
X322233095Y-86928683D01*
X322280714Y-87023921D01*
X322280714Y-87262016D01*
X322233095Y-87357254D01*
X322185476Y-87404873D01*
X322090238Y-87452492D01*
X321804523Y-87452492D01*
X321709285Y-87404873D01*
X321661666Y-87357254D01*
D11*
X316271383Y-75333380D02*
X316271383Y-74333380D01*
X316604716Y-75047666D01*
X316938050Y-74333380D01*
X316938050Y-75333380D01*
X317938050Y-75333380D02*
X317366621Y-75333380D01*
X317652335Y-75333380D02*
X317652335Y-74333380D01*
X317557097Y-74476238D01*
X317461859Y-74571476D01*
X317366621Y-74619095D01*
X319128526Y-74952428D02*
X319890430Y-74952428D01*
X321652335Y-75333380D02*
X321080907Y-75333380D01*
X321366621Y-75333380D02*
X321366621Y-74333380D01*
X321271383Y-74476238D01*
X321176145Y-74571476D01*
X321080907Y-74619095D01*
X322128526Y-75285761D02*
X322128526Y-75333380D01*
X322080907Y-75428619D01*
X322033288Y-75476238D01*
X323033288Y-74333380D02*
X322557097Y-74333380D01*
X322509478Y-74809571D01*
X322557097Y-74761952D01*
X322652335Y-74714333D01*
X322890430Y-74714333D01*
X322985669Y-74761952D01*
X323033288Y-74809571D01*
X323080907Y-74904809D01*
X323080907Y-75142904D01*
X323033288Y-75238142D01*
X322985669Y-75285761D01*
X322890430Y-75333380D01*
X322652335Y-75333380D01*
X322557097Y-75285761D01*
X322509478Y-75238142D01*
X323509478Y-75333380D02*
X323509478Y-74666714D01*
X323509478Y-74761952D02*
X323557097Y-74714333D01*
X323652335Y-74666714D01*
X323795192Y-74666714D01*
X323890430Y-74714333D01*
X323938050Y-74809571D01*
X323938050Y-75333380D01*
X323938050Y-74809571D02*
X323985669Y-74714333D01*
X324080907Y-74666714D01*
X324223764Y-74666714D01*
X324319002Y-74714333D01*
X324366621Y-74809571D01*
X324366621Y-75333380D01*
X324842811Y-75333380D02*
X324842811Y-74666714D01*
X324842811Y-74761952D02*
X324890430Y-74714333D01*
X324985669Y-74666714D01*
X325128526Y-74666714D01*
X325223764Y-74714333D01*
X325271383Y-74809571D01*
X325271383Y-75333380D01*
X325271383Y-74809571D02*
X325319002Y-74714333D01*
X325414240Y-74666714D01*
X325557097Y-74666714D01*
X325652335Y-74714333D01*
X325699954Y-74809571D01*
X325699954Y-75333380D01*
X316296383Y-77258380D02*
X316296383Y-76258380D01*
X316629716Y-76972666D01*
X316963050Y-76258380D01*
X316963050Y-77258380D01*
X317391621Y-76353619D02*
X317439240Y-76306000D01*
X317534478Y-76258380D01*
X317772573Y-76258380D01*
X317867811Y-76306000D01*
X317915430Y-76353619D01*
X317963050Y-76448857D01*
X317963050Y-76544095D01*
X317915430Y-76686952D01*
X317344002Y-77258380D01*
X317963050Y-77258380D01*
X319153526Y-76877428D02*
X319915430Y-76877428D01*
X321582097Y-76591714D02*
X321582097Y-77258380D01*
X321344002Y-76210761D02*
X321105907Y-76925047D01*
X321724954Y-76925047D01*
X322153526Y-77210761D02*
X322153526Y-77258380D01*
X322105907Y-77353619D01*
X322058288Y-77401238D01*
X322772573Y-76258380D02*
X322867811Y-76258380D01*
X322963050Y-76306000D01*
X323010669Y-76353619D01*
X323058288Y-76448857D01*
X323105907Y-76639333D01*
X323105907Y-76877428D01*
X323058288Y-77067904D01*
X323010669Y-77163142D01*
X322963050Y-77210761D01*
X322867811Y-77258380D01*
X322772573Y-77258380D01*
X322677335Y-77210761D01*
X322629716Y-77163142D01*
X322582097Y-77067904D01*
X322534478Y-76877428D01*
X322534478Y-76639333D01*
X322582097Y-76448857D01*
X322629716Y-76353619D01*
X322677335Y-76306000D01*
X322772573Y-76258380D01*
X323534478Y-77258380D02*
X323534478Y-76591714D01*
X323534478Y-76686952D02*
X323582097Y-76639333D01*
X323677335Y-76591714D01*
X323820192Y-76591714D01*
X323915430Y-76639333D01*
X323963050Y-76734571D01*
X323963050Y-77258380D01*
X323963050Y-76734571D02*
X324010669Y-76639333D01*
X324105907Y-76591714D01*
X324248764Y-76591714D01*
X324344002Y-76639333D01*
X324391621Y-76734571D01*
X324391621Y-77258380D01*
X324867811Y-77258380D02*
X324867811Y-76591714D01*
X324867811Y-76686952D02*
X324915430Y-76639333D01*
X325010669Y-76591714D01*
X325153526Y-76591714D01*
X325248764Y-76639333D01*
X325296383Y-76734571D01*
X325296383Y-77258380D01*
X325296383Y-76734571D02*
X325344002Y-76639333D01*
X325439240Y-76591714D01*
X325582097Y-76591714D01*
X325677335Y-76639333D01*
X325724954Y-76734571D01*
X325724954Y-77258380D01*
D10*
X213661904Y-86452759D02*
X213661904Y-87262283D01*
X213709523Y-87357521D01*
X213757142Y-87405140D01*
X213852380Y-87452759D01*
X214042857Y-87452759D01*
X214138095Y-87405140D01*
X214185714Y-87357521D01*
X214233333Y-87262283D01*
X214233333Y-86452759D01*
X215233333Y-87452759D02*
X214661904Y-87452759D01*
X214947619Y-87452759D02*
X214947619Y-86452759D01*
X214852380Y-86595617D01*
X214757142Y-86690855D01*
X214661904Y-86738474D01*
X215804761Y-86881331D02*
X215709523Y-86833712D01*
X215661904Y-86786093D01*
X215614285Y-86690855D01*
X215614285Y-86643236D01*
X215661904Y-86547998D01*
X215709523Y-86500379D01*
X215804761Y-86452759D01*
X215995238Y-86452759D01*
X216090476Y-86500379D01*
X216138095Y-86547998D01*
X216185714Y-86643236D01*
X216185714Y-86690855D01*
X216138095Y-86786093D01*
X216090476Y-86833712D01*
X215995238Y-86881331D01*
X215804761Y-86881331D01*
X215709523Y-86928950D01*
X215661904Y-86976569D01*
X215614285Y-87071807D01*
X215614285Y-87262283D01*
X215661904Y-87357521D01*
X215709523Y-87405140D01*
X215804761Y-87452759D01*
X215995238Y-87452759D01*
X216090476Y-87405140D01*
X216138095Y-87357521D01*
X216185714Y-87262283D01*
X216185714Y-87071807D01*
X216138095Y-86976569D01*
X216090476Y-86928950D01*
X215995238Y-86881331D01*
D11*
X210271383Y-75333380D02*
X210271383Y-74333380D01*
X210604716Y-75047666D01*
X210938050Y-74333380D01*
X210938050Y-75333380D01*
X211938050Y-75333380D02*
X211366621Y-75333380D01*
X211652335Y-75333380D02*
X211652335Y-74333380D01*
X211557097Y-74476238D01*
X211461859Y-74571476D01*
X211366621Y-74619095D01*
X213128526Y-74952428D02*
X213890430Y-74952428D01*
X215652335Y-75333380D02*
X215080907Y-75333380D01*
X215366621Y-75333380D02*
X215366621Y-74333380D01*
X215271383Y-74476238D01*
X215176145Y-74571476D01*
X215080907Y-74619095D01*
X216128526Y-75285761D02*
X216128526Y-75333380D01*
X216080907Y-75428619D01*
X216033288Y-75476238D01*
X217033288Y-74333380D02*
X216557097Y-74333380D01*
X216509478Y-74809571D01*
X216557097Y-74761952D01*
X216652335Y-74714333D01*
X216890430Y-74714333D01*
X216985669Y-74761952D01*
X217033288Y-74809571D01*
X217080907Y-74904809D01*
X217080907Y-75142904D01*
X217033288Y-75238142D01*
X216985669Y-75285761D01*
X216890430Y-75333380D01*
X216652335Y-75333380D01*
X216557097Y-75285761D01*
X216509478Y-75238142D01*
X217509478Y-75333380D02*
X217509478Y-74666714D01*
X217509478Y-74761952D02*
X217557097Y-74714333D01*
X217652335Y-74666714D01*
X217795192Y-74666714D01*
X217890430Y-74714333D01*
X217938050Y-74809571D01*
X217938050Y-75333380D01*
X217938050Y-74809571D02*
X217985669Y-74714333D01*
X218080907Y-74666714D01*
X218223764Y-74666714D01*
X218319002Y-74714333D01*
X218366621Y-74809571D01*
X218366621Y-75333380D01*
X218842811Y-75333380D02*
X218842811Y-74666714D01*
X218842811Y-74761952D02*
X218890430Y-74714333D01*
X218985669Y-74666714D01*
X219128526Y-74666714D01*
X219223764Y-74714333D01*
X219271383Y-74809571D01*
X219271383Y-75333380D01*
X219271383Y-74809571D02*
X219319002Y-74714333D01*
X219414240Y-74666714D01*
X219557097Y-74666714D01*
X219652335Y-74714333D01*
X219699954Y-74809571D01*
X219699954Y-75333380D01*
X210296383Y-77258380D02*
X210296383Y-76258380D01*
X210629716Y-76972666D01*
X210963050Y-76258380D01*
X210963050Y-77258380D01*
X211391621Y-76353619D02*
X211439240Y-76306000D01*
X211534478Y-76258380D01*
X211772573Y-76258380D01*
X211867811Y-76306000D01*
X211915430Y-76353619D01*
X211963050Y-76448857D01*
X211963050Y-76544095D01*
X211915430Y-76686952D01*
X211344002Y-77258380D01*
X211963050Y-77258380D01*
X213153526Y-76877428D02*
X213915430Y-76877428D01*
X215582097Y-76591714D02*
X215582097Y-77258380D01*
X215344002Y-76210761D02*
X215105907Y-76925047D01*
X215724954Y-76925047D01*
X216153526Y-77210761D02*
X216153526Y-77258380D01*
X216105907Y-77353619D01*
X216058288Y-77401238D01*
X216772573Y-76258380D02*
X216867811Y-76258380D01*
X216963050Y-76306000D01*
X217010669Y-76353619D01*
X217058288Y-76448857D01*
X217105907Y-76639333D01*
X217105907Y-76877428D01*
X217058288Y-77067904D01*
X217010669Y-77163142D01*
X216963050Y-77210761D01*
X216867811Y-77258380D01*
X216772573Y-77258380D01*
X216677335Y-77210761D01*
X216629716Y-77163142D01*
X216582097Y-77067904D01*
X216534478Y-76877428D01*
X216534478Y-76639333D01*
X216582097Y-76448857D01*
X216629716Y-76353619D01*
X216677335Y-76306000D01*
X216772573Y-76258380D01*
X217534478Y-77258380D02*
X217534478Y-76591714D01*
X217534478Y-76686952D02*
X217582097Y-76639333D01*
X217677335Y-76591714D01*
X217820192Y-76591714D01*
X217915430Y-76639333D01*
X217963050Y-76734571D01*
X217963050Y-77258380D01*
X217963050Y-76734571D02*
X218010669Y-76639333D01*
X218105907Y-76591714D01*
X218248764Y-76591714D01*
X218344002Y-76639333D01*
X218391621Y-76734571D01*
X218391621Y-77258380D01*
X218867811Y-77258380D02*
X218867811Y-76591714D01*
X218867811Y-76686952D02*
X218915430Y-76639333D01*
X219010669Y-76591714D01*
X219153526Y-76591714D01*
X219248764Y-76639333D01*
X219296383Y-76734571D01*
X219296383Y-77258380D01*
X219296383Y-76734571D02*
X219344002Y-76639333D01*
X219439240Y-76591714D01*
X219582097Y-76591714D01*
X219677335Y-76639333D01*
X219724954Y-76734571D01*
X219724954Y-77258380D01*
D10*
X107691904Y-86452380D02*
X107691904Y-87261904D01*
X107739523Y-87357142D01*
X107787142Y-87404761D01*
X107882380Y-87452380D01*
X108072857Y-87452380D01*
X108168095Y-87404761D01*
X108215714Y-87357142D01*
X108263333Y-87261904D01*
X108263333Y-86452380D01*
X109263333Y-87452380D02*
X108691904Y-87452380D01*
X108977619Y-87452380D02*
X108977619Y-86452380D01*
X108882380Y-86595238D01*
X108787142Y-86690476D01*
X108691904Y-86738095D01*
X110120476Y-86452380D02*
X109930000Y-86452380D01*
X109834761Y-86500000D01*
X109787142Y-86547619D01*
X109691904Y-86690476D01*
X109644285Y-86880952D01*
X109644285Y-87261904D01*
X109691904Y-87357142D01*
X109739523Y-87404761D01*
X109834761Y-87452380D01*
X110025238Y-87452380D01*
X110120476Y-87404761D01*
X110168095Y-87357142D01*
X110215714Y-87261904D01*
X110215714Y-87023809D01*
X110168095Y-86928571D01*
X110120476Y-86880952D01*
X110025238Y-86833333D01*
X109834761Y-86833333D01*
X109739523Y-86880952D01*
X109691904Y-86928571D01*
X109644285Y-87023809D01*
D11*
X104271383Y-75833380D02*
X104271383Y-74833380D01*
X104604716Y-75547666D01*
X104938050Y-74833380D01*
X104938050Y-75833380D01*
X105938050Y-75833380D02*
X105366621Y-75833380D01*
X105652335Y-75833380D02*
X105652335Y-74833380D01*
X105557097Y-74976238D01*
X105461859Y-75071476D01*
X105366621Y-75119095D01*
X107128526Y-75452428D02*
X107890430Y-75452428D01*
X109652335Y-75833380D02*
X109080907Y-75833380D01*
X109366621Y-75833380D02*
X109366621Y-74833380D01*
X109271383Y-74976238D01*
X109176145Y-75071476D01*
X109080907Y-75119095D01*
X110128526Y-75785761D02*
X110128526Y-75833380D01*
X110080907Y-75928619D01*
X110033288Y-75976238D01*
X111033288Y-74833380D02*
X110557097Y-74833380D01*
X110509478Y-75309571D01*
X110557097Y-75261952D01*
X110652335Y-75214333D01*
X110890430Y-75214333D01*
X110985669Y-75261952D01*
X111033288Y-75309571D01*
X111080907Y-75404809D01*
X111080907Y-75642904D01*
X111033288Y-75738142D01*
X110985669Y-75785761D01*
X110890430Y-75833380D01*
X110652335Y-75833380D01*
X110557097Y-75785761D01*
X110509478Y-75738142D01*
X111509478Y-75833380D02*
X111509478Y-75166714D01*
X111509478Y-75261952D02*
X111557097Y-75214333D01*
X111652335Y-75166714D01*
X111795192Y-75166714D01*
X111890430Y-75214333D01*
X111938050Y-75309571D01*
X111938050Y-75833380D01*
X111938050Y-75309571D02*
X111985669Y-75214333D01*
X112080907Y-75166714D01*
X112223764Y-75166714D01*
X112319002Y-75214333D01*
X112366621Y-75309571D01*
X112366621Y-75833380D01*
X112842811Y-75833380D02*
X112842811Y-75166714D01*
X112842811Y-75261952D02*
X112890430Y-75214333D01*
X112985669Y-75166714D01*
X113128526Y-75166714D01*
X113223764Y-75214333D01*
X113271383Y-75309571D01*
X113271383Y-75833380D01*
X113271383Y-75309571D02*
X113319002Y-75214333D01*
X113414240Y-75166714D01*
X113557097Y-75166714D01*
X113652335Y-75214333D01*
X113699954Y-75309571D01*
X113699954Y-75833380D01*
X104296383Y-77758380D02*
X104296383Y-76758380D01*
X104629716Y-77472666D01*
X104963050Y-76758380D01*
X104963050Y-77758380D01*
X105391621Y-76853619D02*
X105439240Y-76806000D01*
X105534478Y-76758380D01*
X105772573Y-76758380D01*
X105867811Y-76806000D01*
X105915430Y-76853619D01*
X105963050Y-76948857D01*
X105963050Y-77044095D01*
X105915430Y-77186952D01*
X105344002Y-77758380D01*
X105963050Y-77758380D01*
X107153526Y-77377428D02*
X107915430Y-77377428D01*
X109582097Y-77091714D02*
X109582097Y-77758380D01*
X109344002Y-76710761D02*
X109105907Y-77425047D01*
X109724954Y-77425047D01*
X110153526Y-77710761D02*
X110153526Y-77758380D01*
X110105907Y-77853619D01*
X110058288Y-77901238D01*
X110772573Y-76758380D02*
X110867811Y-76758380D01*
X110963050Y-76806000D01*
X111010669Y-76853619D01*
X111058288Y-76948857D01*
X111105907Y-77139333D01*
X111105907Y-77377428D01*
X111058288Y-77567904D01*
X111010669Y-77663142D01*
X110963050Y-77710761D01*
X110867811Y-77758380D01*
X110772573Y-77758380D01*
X110677335Y-77710761D01*
X110629716Y-77663142D01*
X110582097Y-77567904D01*
X110534478Y-77377428D01*
X110534478Y-77139333D01*
X110582097Y-76948857D01*
X110629716Y-76853619D01*
X110677335Y-76806000D01*
X110772573Y-76758380D01*
X111534478Y-77758380D02*
X111534478Y-77091714D01*
X111534478Y-77186952D02*
X111582097Y-77139333D01*
X111677335Y-77091714D01*
X111820192Y-77091714D01*
X111915430Y-77139333D01*
X111963050Y-77234571D01*
X111963050Y-77758380D01*
X111963050Y-77234571D02*
X112010669Y-77139333D01*
X112105907Y-77091714D01*
X112248764Y-77091714D01*
X112344002Y-77139333D01*
X112391621Y-77234571D01*
X112391621Y-77758380D01*
X112867811Y-77758380D02*
X112867811Y-77091714D01*
X112867811Y-77186952D02*
X112915430Y-77139333D01*
X113010669Y-77091714D01*
X113153526Y-77091714D01*
X113248764Y-77139333D01*
X113296383Y-77234571D01*
X113296383Y-77758380D01*
X113296383Y-77234571D02*
X113344002Y-77139333D01*
X113439240Y-77091714D01*
X113582097Y-77091714D01*
X113677335Y-77139333D01*
X113724954Y-77234571D01*
X113724954Y-77758380D01*
D10*
X248284703Y-109720502D02*
X247284703Y-109720502D01*
X247284703Y-109482407D01*
X247332323Y-109339550D01*
X247427561Y-109244312D01*
X247522799Y-109196693D01*
X247713275Y-109149074D01*
X247856132Y-109149074D01*
X248046608Y-109196693D01*
X248141846Y-109244312D01*
X248237084Y-109339550D01*
X248284703Y-109482407D01*
X248284703Y-109720502D01*
X248284703Y-108196693D02*
X248284703Y-108768121D01*
X248284703Y-108482407D02*
X247284703Y-108482407D01*
X247427561Y-108577645D01*
X247522799Y-108672883D01*
X247570418Y-108768121D01*
X247379942Y-107815740D02*
X247332323Y-107768121D01*
X247284703Y-107672883D01*
X247284703Y-107434788D01*
X247332323Y-107339550D01*
X247379942Y-107291931D01*
X247475180Y-107244312D01*
X247570418Y-107244312D01*
X247713275Y-107291931D01*
X248284703Y-107863359D01*
X248284703Y-107244312D01*
X244281558Y-172327777D02*
X243281558Y-172327777D01*
X243281558Y-172089682D01*
X243329178Y-171946825D01*
X243424416Y-171851587D01*
X243519654Y-171803968D01*
X243710130Y-171756349D01*
X243852987Y-171756349D01*
X244043463Y-171803968D01*
X244138701Y-171851587D01*
X244233939Y-171946825D01*
X244281558Y-172089682D01*
X244281558Y-172327777D01*
X244281558Y-170803968D02*
X244281558Y-171375396D01*
X244281558Y-171089682D02*
X243281558Y-171089682D01*
X243424416Y-171184920D01*
X243519654Y-171280158D01*
X243567273Y-171375396D01*
X244281558Y-169851587D02*
X244281558Y-170423015D01*
X244281558Y-170137301D02*
X243281558Y-170137301D01*
X243424416Y-170232539D01*
X243519654Y-170327777D01*
X243567273Y-170423015D01*
X350296454Y-172327777D02*
X349296454Y-172327777D01*
X349296454Y-172089682D01*
X349344074Y-171946825D01*
X349439312Y-171851587D01*
X349534550Y-171803968D01*
X349725026Y-171756349D01*
X349867883Y-171756349D01*
X350058359Y-171803968D01*
X350153597Y-171851587D01*
X350248835Y-171946825D01*
X350296454Y-172089682D01*
X350296454Y-172327777D01*
X350296454Y-170803968D02*
X350296454Y-171375396D01*
X350296454Y-171089682D02*
X349296454Y-171089682D01*
X349439312Y-171184920D01*
X349534550Y-171280158D01*
X349582169Y-171375396D01*
X349296454Y-170184920D02*
X349296454Y-170089682D01*
X349344074Y-169994444D01*
X349391693Y-169946825D01*
X349486931Y-169899206D01*
X349677407Y-169851587D01*
X349915502Y-169851587D01*
X350105978Y-169899206D01*
X350201216Y-169946825D01*
X350248835Y-169994444D01*
X350296454Y-170089682D01*
X350296454Y-170184920D01*
X350248835Y-170280158D01*
X350201216Y-170327777D01*
X350105978Y-170375396D01*
X349915502Y-170423015D01*
X349677407Y-170423015D01*
X349486931Y-170375396D01*
X349391693Y-170327777D01*
X349344074Y-170280158D01*
X349296454Y-170184920D01*
X354302203Y-109244312D02*
X353302203Y-109244312D01*
X353302203Y-109006217D01*
X353349823Y-108863359D01*
X353445061Y-108768121D01*
X353540299Y-108720502D01*
X353730775Y-108672883D01*
X353873632Y-108672883D01*
X354064108Y-108720502D01*
X354159346Y-108768121D01*
X354254584Y-108863359D01*
X354302203Y-109006217D01*
X354302203Y-109244312D01*
X354302203Y-108196693D02*
X354302203Y-108006217D01*
X354254584Y-107910978D01*
X354206965Y-107863359D01*
X354064108Y-107768121D01*
X353873632Y-107720502D01*
X353492680Y-107720502D01*
X353397442Y-107768121D01*
X353349823Y-107815740D01*
X353302203Y-107910978D01*
X353302203Y-108101455D01*
X353349823Y-108196693D01*
X353397442Y-108244312D01*
X353492680Y-108291931D01*
X353730775Y-108291931D01*
X353826013Y-108244312D01*
X353873632Y-108196693D01*
X353921251Y-108101455D01*
X353921251Y-107910978D01*
X353873632Y-107815740D01*
X353826013Y-107768121D01*
X353730775Y-107720502D01*
X142320288Y-109244312D02*
X141320288Y-109244312D01*
X141320288Y-109006217D01*
X141367908Y-108863359D01*
X141463146Y-108768121D01*
X141558384Y-108720502D01*
X141748860Y-108672883D01*
X141891717Y-108672883D01*
X142082193Y-108720502D01*
X142177431Y-108768121D01*
X142272669Y-108863359D01*
X142320288Y-109006217D01*
X142320288Y-109244312D01*
X141748860Y-108101455D02*
X141701241Y-108196693D01*
X141653622Y-108244312D01*
X141558384Y-108291931D01*
X141510765Y-108291931D01*
X141415527Y-108244312D01*
X141367908Y-108196693D01*
X141320288Y-108101455D01*
X141320288Y-107910978D01*
X141367908Y-107815740D01*
X141415527Y-107768121D01*
X141510765Y-107720502D01*
X141558384Y-107720502D01*
X141653622Y-107768121D01*
X141701241Y-107815740D01*
X141748860Y-107910978D01*
X141748860Y-108101455D01*
X141796479Y-108196693D01*
X141844098Y-108244312D01*
X141939336Y-108291931D01*
X142129812Y-108291931D01*
X142225050Y-108244312D01*
X142272669Y-108196693D01*
X142320288Y-108101455D01*
X142320288Y-107910978D01*
X142272669Y-107815740D01*
X142225050Y-107768121D01*
X142129812Y-107720502D01*
X141939336Y-107720502D01*
X141844098Y-107768121D01*
X141796479Y-107815740D01*
X141748860Y-107910978D01*
X138294178Y-171851587D02*
X137294178Y-171851587D01*
X137294178Y-171613492D01*
X137341798Y-171470634D01*
X137437036Y-171375396D01*
X137532274Y-171327777D01*
X137722750Y-171280158D01*
X137865607Y-171280158D01*
X138056083Y-171327777D01*
X138151321Y-171375396D01*
X138246559Y-171470634D01*
X138294178Y-171613492D01*
X138294178Y-171851587D01*
X137294178Y-170946825D02*
X137294178Y-170280158D01*
X138294178Y-170708730D01*
X242806731Y-109244312D02*
X241806731Y-109244312D01*
X241806731Y-109006217D01*
X241854351Y-108863359D01*
X241949589Y-108768121D01*
X242044827Y-108720502D01*
X242235303Y-108672883D01*
X242378160Y-108672883D01*
X242568636Y-108720502D01*
X242663874Y-108768121D01*
X242759112Y-108863359D01*
X242806731Y-109006217D01*
X242806731Y-109244312D01*
X241806731Y-107815740D02*
X241806731Y-108006217D01*
X241854351Y-108101455D01*
X241901970Y-108149074D01*
X242044827Y-108244312D01*
X242235303Y-108291931D01*
X242616255Y-108291931D01*
X242711493Y-108244312D01*
X242759112Y-108196693D01*
X242806731Y-108101455D01*
X242806731Y-107910978D01*
X242759112Y-107815740D01*
X242711493Y-107768121D01*
X242616255Y-107720502D01*
X242378160Y-107720502D01*
X242282922Y-107768121D01*
X242235303Y-107815740D01*
X242187684Y-107910978D01*
X242187684Y-108101455D01*
X242235303Y-108196693D01*
X242282922Y-108244312D01*
X242378160Y-108291931D01*
X238799710Y-171851587D02*
X237799710Y-171851587D01*
X237799710Y-171613492D01*
X237847330Y-171470634D01*
X237942568Y-171375396D01*
X238037806Y-171327777D01*
X238228282Y-171280158D01*
X238371139Y-171280158D01*
X238561615Y-171327777D01*
X238656853Y-171375396D01*
X238752091Y-171470634D01*
X238799710Y-171613492D01*
X238799710Y-171851587D01*
X237799710Y-170375396D02*
X237799710Y-170851587D01*
X238275901Y-170899206D01*
X238228282Y-170851587D01*
X238180663Y-170756349D01*
X238180663Y-170518253D01*
X238228282Y-170423015D01*
X238275901Y-170375396D01*
X238371139Y-170327777D01*
X238609234Y-170327777D01*
X238704472Y-170375396D01*
X238752091Y-170423015D01*
X238799710Y-170518253D01*
X238799710Y-170756349D01*
X238752091Y-170851587D01*
X238704472Y-170899206D01*
X344805055Y-171851587D02*
X343805055Y-171851587D01*
X343805055Y-171613492D01*
X343852675Y-171470634D01*
X343947913Y-171375396D01*
X344043151Y-171327777D01*
X344233627Y-171280158D01*
X344376484Y-171280158D01*
X344566960Y-171327777D01*
X344662198Y-171375396D01*
X344757436Y-171470634D01*
X344805055Y-171613492D01*
X344805055Y-171851587D01*
X344138389Y-170423015D02*
X344805055Y-170423015D01*
X343757436Y-170661111D02*
X344471722Y-170899206D01*
X344471722Y-170280158D01*
X348790581Y-109244312D02*
X347790581Y-109244312D01*
X347790581Y-109006217D01*
X347838201Y-108863359D01*
X347933439Y-108768121D01*
X348028677Y-108720502D01*
X348219153Y-108672883D01*
X348362010Y-108672883D01*
X348552486Y-108720502D01*
X348647724Y-108768121D01*
X348742962Y-108863359D01*
X348790581Y-109006217D01*
X348790581Y-109244312D01*
X347790581Y-108339550D02*
X347790581Y-107720502D01*
X348171534Y-108053836D01*
X348171534Y-107910978D01*
X348219153Y-107815740D01*
X348266772Y-107768121D01*
X348362010Y-107720502D01*
X348600105Y-107720502D01*
X348695343Y-107768121D01*
X348742962Y-107815740D01*
X348790581Y-107910978D01*
X348790581Y-108196693D01*
X348742962Y-108291931D01*
X348695343Y-108339550D01*
X136808440Y-109244312D02*
X135808440Y-109244312D01*
X135808440Y-109006217D01*
X135856060Y-108863359D01*
X135951298Y-108768121D01*
X136046536Y-108720502D01*
X136237012Y-108672883D01*
X136379869Y-108672883D01*
X136570345Y-108720502D01*
X136665583Y-108768121D01*
X136760821Y-108863359D01*
X136808440Y-109006217D01*
X136808440Y-109244312D01*
X135903679Y-108291931D02*
X135856060Y-108244312D01*
X135808440Y-108149074D01*
X135808440Y-107910978D01*
X135856060Y-107815740D01*
X135903679Y-107768121D01*
X135998917Y-107720502D01*
X136094155Y-107720502D01*
X136237012Y-107768121D01*
X136808440Y-108339550D01*
X136808440Y-107720502D01*
X132813229Y-171851587D02*
X131813229Y-171851587D01*
X131813229Y-171613492D01*
X131860849Y-171470634D01*
X131956087Y-171375396D01*
X132051325Y-171327777D01*
X132241801Y-171280158D01*
X132384658Y-171280158D01*
X132575134Y-171327777D01*
X132670372Y-171375396D01*
X132765610Y-171470634D01*
X132813229Y-171613492D01*
X132813229Y-171851587D01*
X132813229Y-170327777D02*
X132813229Y-170899206D01*
X132813229Y-170613492D02*
X131813229Y-170613492D01*
X131956087Y-170708730D01*
X132051325Y-170803968D01*
X132098944Y-170899206D01*
X161666740Y-139728380D02*
X161666740Y-140442666D01*
X161619121Y-140585523D01*
X161523883Y-140680761D01*
X161381026Y-140728380D01*
X161285788Y-140728380D01*
X162666740Y-140728380D02*
X162095312Y-140728380D01*
X162381026Y-140728380D02*
X162381026Y-139728380D01*
X162285788Y-139871238D01*
X162190550Y-139966476D01*
X162095312Y-140014095D01*
D11*
X172577335Y-163606000D02*
X172482097Y-163558380D01*
X172339240Y-163558380D01*
X172196383Y-163606000D01*
X172101145Y-163701238D01*
X172053526Y-163796476D01*
X172005907Y-163986952D01*
X172005907Y-164129809D01*
X172053526Y-164320285D01*
X172101145Y-164415523D01*
X172196383Y-164510761D01*
X172339240Y-164558380D01*
X172434478Y-164558380D01*
X172577335Y-164510761D01*
X172624954Y-164463142D01*
X172624954Y-164129809D01*
X172434478Y-164129809D01*
X173053526Y-164558380D02*
X173053526Y-163558380D01*
X173624954Y-164558380D01*
X173624954Y-163558380D01*
X174101145Y-164558380D02*
X174101145Y-163558380D01*
X174339240Y-163558380D01*
X174482097Y-163606000D01*
X174577335Y-163701238D01*
X174624954Y-163796476D01*
X174672573Y-163986952D01*
X174672573Y-164129809D01*
X174624954Y-164320285D01*
X174577335Y-164415523D01*
X174482097Y-164510761D01*
X174339240Y-164558380D01*
X174101145Y-164558380D01*
X160745119Y-163508380D02*
X160745119Y-164317904D01*
X160792738Y-164413142D01*
X160840357Y-164460761D01*
X160935595Y-164508380D01*
X161126071Y-164508380D01*
X161221309Y-164460761D01*
X161268928Y-164413142D01*
X161316547Y-164317904D01*
X161316547Y-163508380D01*
X161745119Y-164460761D02*
X161887976Y-164508380D01*
X162126071Y-164508380D01*
X162221309Y-164460761D01*
X162268928Y-164413142D01*
X162316547Y-164317904D01*
X162316547Y-164222666D01*
X162268928Y-164127428D01*
X162221309Y-164079809D01*
X162126071Y-164032190D01*
X161935595Y-163984571D01*
X161840357Y-163936952D01*
X161792738Y-163889333D01*
X161745119Y-163794095D01*
X161745119Y-163698857D01*
X161792738Y-163603619D01*
X161840357Y-163556000D01*
X161935595Y-163508380D01*
X162173690Y-163508380D01*
X162316547Y-163556000D01*
X163078452Y-163984571D02*
X163221309Y-164032190D01*
X163268928Y-164079809D01*
X163316547Y-164175047D01*
X163316547Y-164317904D01*
X163268928Y-164413142D01*
X163221309Y-164460761D01*
X163126071Y-164508380D01*
X162745119Y-164508380D01*
X162745119Y-163508380D01*
X163078452Y-163508380D01*
X163173690Y-163556000D01*
X163221309Y-163603619D01*
X163268928Y-163698857D01*
X163268928Y-163794095D01*
X163221309Y-163889333D01*
X163173690Y-163936952D01*
X163078452Y-163984571D01*
X162745119Y-163984571D01*
X149601145Y-115358380D02*
X149934478Y-116358380D01*
X150267811Y-115358380D01*
X150601145Y-116358380D02*
X150601145Y-115358380D01*
X150839240Y-115358380D01*
X150982097Y-115406000D01*
X151077335Y-115501238D01*
X151124954Y-115596476D01*
X151172573Y-115786952D01*
X151172573Y-115929809D01*
X151124954Y-116120285D01*
X151077335Y-116215523D01*
X150982097Y-116310761D01*
X150839240Y-116358380D01*
X150601145Y-116358380D01*
X151601145Y-116358380D02*
X151601145Y-115358380D01*
X151839240Y-115358380D01*
X151982097Y-115406000D01*
X152077335Y-115501238D01*
X152124954Y-115596476D01*
X152172573Y-115786952D01*
X152172573Y-115929809D01*
X152124954Y-116120285D01*
X152077335Y-116215523D01*
X151982097Y-116310761D01*
X151839240Y-116358380D01*
X151601145Y-116358380D01*
X159977262Y-115258380D02*
X160548690Y-115258380D01*
X160262976Y-116258380D02*
X160262976Y-115258380D01*
X161024881Y-116258380D02*
X160929643Y-116210761D01*
X160882024Y-116163142D01*
X160834404Y-116067904D01*
X160834404Y-115782190D01*
X160882024Y-115686952D01*
X160929643Y-115639333D01*
X161024881Y-115591714D01*
X161167738Y-115591714D01*
X161262976Y-115639333D01*
X161310595Y-115686952D01*
X161358214Y-115782190D01*
X161358214Y-116067904D01*
X161310595Y-116163142D01*
X161262976Y-116210761D01*
X161167738Y-116258380D01*
X161024881Y-116258380D01*
X162215357Y-115591714D02*
X162215357Y-116258380D01*
X161786785Y-115591714D02*
X161786785Y-116115523D01*
X161834404Y-116210761D01*
X161929643Y-116258380D01*
X162072500Y-116258380D01*
X162167738Y-116210761D01*
X162215357Y-116163142D01*
X163120119Y-116210761D02*
X163024881Y-116258380D01*
X162834404Y-116258380D01*
X162739166Y-116210761D01*
X162691547Y-116163142D01*
X162643928Y-116067904D01*
X162643928Y-115782190D01*
X162691547Y-115686952D01*
X162739166Y-115639333D01*
X162834404Y-115591714D01*
X163024881Y-115591714D01*
X163120119Y-115639333D01*
X163548690Y-116258380D02*
X163548690Y-115258380D01*
X163977262Y-116258380D02*
X163977262Y-115734571D01*
X163929643Y-115639333D01*
X163834404Y-115591714D01*
X163691547Y-115591714D01*
X163596309Y-115639333D01*
X163548690Y-115686952D01*
D10*
X330352454Y-141244095D02*
X331161978Y-141244095D01*
X331257216Y-141196476D01*
X331304835Y-141148857D01*
X331352454Y-141053619D01*
X331352454Y-140863142D01*
X331304835Y-140767904D01*
X331257216Y-140720285D01*
X331161978Y-140672666D01*
X330352454Y-140672666D01*
X330447693Y-140244095D02*
X330400074Y-140196476D01*
X330352454Y-140101238D01*
X330352454Y-139863142D01*
X330400074Y-139767904D01*
X330447693Y-139720285D01*
X330542931Y-139672666D01*
X330638169Y-139672666D01*
X330781026Y-139720285D01*
X331352454Y-140291714D01*
X331352454Y-139672666D01*
X330352454Y-139053619D02*
X330352454Y-138958380D01*
X330400074Y-138863142D01*
X330447693Y-138815523D01*
X330542931Y-138767904D01*
X330733407Y-138720285D01*
X330971502Y-138720285D01*
X331161978Y-138767904D01*
X331257216Y-138815523D01*
X331304835Y-138863142D01*
X331352454Y-138958380D01*
X331352454Y-139053619D01*
X331304835Y-139148857D01*
X331257216Y-139196476D01*
X331161978Y-139244095D01*
X330971502Y-139291714D01*
X330733407Y-139291714D01*
X330542931Y-139244095D01*
X330447693Y-139196476D01*
X330400074Y-139148857D01*
X330352454Y-139053619D01*
X226552142Y-134233142D02*
X226504523Y-134280761D01*
X226361666Y-134328380D01*
X226266428Y-134328380D01*
X226123571Y-134280761D01*
X226028333Y-134185523D01*
X225980714Y-134090285D01*
X225933095Y-133899809D01*
X225933095Y-133756952D01*
X225980714Y-133566476D01*
X226028333Y-133471238D01*
X226123571Y-133376000D01*
X226266428Y-133328380D01*
X226361666Y-133328380D01*
X226504523Y-133376000D01*
X226552142Y-133423619D01*
X227504523Y-134328380D02*
X226933095Y-134328380D01*
X227218809Y-134328380D02*
X227218809Y-133328380D01*
X227123571Y-133471238D01*
X227028333Y-133566476D01*
X226933095Y-133614095D01*
X228409285Y-133328380D02*
X227933095Y-133328380D01*
X227885476Y-133804571D01*
X227933095Y-133756952D01*
X228028333Y-133709333D01*
X228266428Y-133709333D01*
X228361666Y-133756952D01*
X228409285Y-133804571D01*
X228456904Y-133899809D01*
X228456904Y-134137904D01*
X228409285Y-134233142D01*
X228361666Y-134280761D01*
X228266428Y-134328380D01*
X228028333Y-134328380D01*
X227933095Y-134280761D01*
X227885476Y-134233142D01*
X99882142Y-146048857D02*
X99929761Y-146096476D01*
X99977380Y-146239333D01*
X99977380Y-146334571D01*
X99929761Y-146477428D01*
X99834523Y-146572666D01*
X99739285Y-146620285D01*
X99548809Y-146667904D01*
X99405952Y-146667904D01*
X99215476Y-146620285D01*
X99120238Y-146572666D01*
X99025000Y-146477428D01*
X98977380Y-146334571D01*
X98977380Y-146239333D01*
X99025000Y-146096476D01*
X99072619Y-146048857D01*
X99977380Y-145096476D02*
X99977380Y-145667904D01*
X99977380Y-145382190D02*
X98977380Y-145382190D01*
X99120238Y-145477428D01*
X99215476Y-145572666D01*
X99263095Y-145667904D01*
X99977380Y-144620285D02*
X99977380Y-144429809D01*
X99929761Y-144334571D01*
X99882142Y-144286952D01*
X99739285Y-144191714D01*
X99548809Y-144144095D01*
X99167857Y-144144095D01*
X99072619Y-144191714D01*
X99025000Y-144239333D01*
X98977380Y-144334571D01*
X98977380Y-144525047D01*
X99025000Y-144620285D01*
X99072619Y-144667904D01*
X99167857Y-144715523D01*
X99405952Y-144715523D01*
X99501190Y-144667904D01*
X99548809Y-144620285D01*
X99596428Y-144525047D01*
X99596428Y-144334571D01*
X99548809Y-144239333D01*
X99501190Y-144191714D01*
X99405952Y-144144095D01*
X205882142Y-146048857D02*
X205929761Y-146096476D01*
X205977380Y-146239333D01*
X205977380Y-146334571D01*
X205929761Y-146477428D01*
X205834523Y-146572666D01*
X205739285Y-146620285D01*
X205548809Y-146667904D01*
X205405952Y-146667904D01*
X205215476Y-146620285D01*
X205120238Y-146572666D01*
X205025000Y-146477428D01*
X204977380Y-146334571D01*
X204977380Y-146239333D01*
X205025000Y-146096476D01*
X205072619Y-146048857D01*
X205072619Y-145667904D02*
X205025000Y-145620285D01*
X204977380Y-145525047D01*
X204977380Y-145286952D01*
X205025000Y-145191714D01*
X205072619Y-145144095D01*
X205167857Y-145096476D01*
X205263095Y-145096476D01*
X205405952Y-145144095D01*
X205977380Y-145715523D01*
X205977380Y-145096476D01*
X205977380Y-144144095D02*
X205977380Y-144715523D01*
X205977380Y-144429809D02*
X204977380Y-144429809D01*
X205120238Y-144525047D01*
X205215476Y-144620285D01*
X205263095Y-144715523D01*
X332552142Y-134233142D02*
X332504523Y-134280761D01*
X332361666Y-134328380D01*
X332266428Y-134328380D01*
X332123571Y-134280761D01*
X332028333Y-134185523D01*
X331980714Y-134090285D01*
X331933095Y-133899809D01*
X331933095Y-133756952D01*
X331980714Y-133566476D01*
X332028333Y-133471238D01*
X332123571Y-133376000D01*
X332266428Y-133328380D01*
X332361666Y-133328380D01*
X332504523Y-133376000D01*
X332552142Y-133423619D01*
X333504523Y-134328380D02*
X332933095Y-134328380D01*
X333218809Y-134328380D02*
X333218809Y-133328380D01*
X333123571Y-133471238D01*
X333028333Y-133566476D01*
X332933095Y-133614095D01*
X334361666Y-133661714D02*
X334361666Y-134328380D01*
X334123571Y-133280761D02*
X333885476Y-133995047D01*
X334504523Y-133995047D01*
X149928333Y-182578380D02*
X149595000Y-182102190D01*
X149356904Y-182578380D02*
X149356904Y-181578380D01*
X149737857Y-181578380D01*
X149833095Y-181626000D01*
X149880714Y-181673619D01*
X149928333Y-181768857D01*
X149928333Y-181911714D01*
X149880714Y-182006952D01*
X149833095Y-182054571D01*
X149737857Y-182102190D01*
X149356904Y-182102190D01*
X150785476Y-181911714D02*
X150785476Y-182578380D01*
X150547380Y-181530761D02*
X150309285Y-182245047D01*
X150928333Y-182245047D01*
X172433095Y-206152380D02*
X172433095Y-205152380D01*
X172433095Y-205628571D02*
X173004523Y-205628571D01*
X173004523Y-206152380D02*
X173004523Y-205152380D01*
X173623571Y-205580952D02*
X173528333Y-205533333D01*
X173480714Y-205485714D01*
X173433095Y-205390476D01*
X173433095Y-205342857D01*
X173480714Y-205247619D01*
X173528333Y-205200000D01*
X173623571Y-205152380D01*
X173814047Y-205152380D01*
X173909285Y-205200000D01*
X173956904Y-205247619D01*
X174004523Y-205342857D01*
X174004523Y-205390476D01*
X173956904Y-205485714D01*
X173909285Y-205533333D01*
X173814047Y-205580952D01*
X173623571Y-205580952D01*
X173528333Y-205628571D01*
X173480714Y-205676190D01*
X173433095Y-205771428D01*
X173433095Y-205961904D01*
X173480714Y-206057142D01*
X173528333Y-206104761D01*
X173623571Y-206152380D01*
X173814047Y-206152380D01*
X173909285Y-206104761D01*
X173956904Y-206057142D01*
X174004523Y-205961904D01*
X174004523Y-205771428D01*
X173956904Y-205676190D01*
X173909285Y-205628571D01*
X173814047Y-205580952D01*
X174297380Y-184972666D02*
X173821190Y-185306000D01*
X174297380Y-185544095D02*
X173297380Y-185544095D01*
X173297380Y-185163142D01*
X173345000Y-185067904D01*
X173392619Y-185020285D01*
X173487857Y-184972666D01*
X173630714Y-184972666D01*
X173725952Y-185020285D01*
X173773571Y-185067904D01*
X173821190Y-185163142D01*
X173821190Y-185544095D01*
X173392619Y-184591714D02*
X173345000Y-184544095D01*
X173297380Y-184448857D01*
X173297380Y-184210761D01*
X173345000Y-184115523D01*
X173392619Y-184067904D01*
X173487857Y-184020285D01*
X173583095Y-184020285D01*
X173725952Y-184067904D01*
X174297380Y-184639333D01*
X174297380Y-184020285D01*
X265533095Y-206152380D02*
X265533095Y-205152380D01*
X265533095Y-205628571D02*
X266104523Y-205628571D01*
X266104523Y-206152380D02*
X266104523Y-205152380D01*
X266628333Y-206152380D02*
X266818809Y-206152380D01*
X266914047Y-206104761D01*
X266961666Y-206057142D01*
X267056904Y-205914285D01*
X267104523Y-205723809D01*
X267104523Y-205342857D01*
X267056904Y-205247619D01*
X267009285Y-205200000D01*
X266914047Y-205152380D01*
X266723571Y-205152380D01*
X266628333Y-205200000D01*
X266580714Y-205247619D01*
X266533095Y-205342857D01*
X266533095Y-205580952D01*
X266580714Y-205676190D01*
X266628333Y-205723809D01*
X266723571Y-205771428D01*
X266914047Y-205771428D01*
X267009285Y-205723809D01*
X267056904Y-205676190D01*
X267104523Y-205580952D01*
X355428571Y-82028571D02*
X355095238Y-82028571D01*
X355095238Y-82552380D02*
X355095238Y-81552380D01*
X355571428Y-81552380D01*
X355952380Y-82552380D02*
X355952380Y-81552380D01*
X356428571Y-82552380D02*
X356428571Y-81552380D01*
X356666666Y-81552380D01*
X356809523Y-81600000D01*
X356904761Y-81695238D01*
X356952380Y-81790476D01*
X357000000Y-81980952D01*
X357000000Y-82123809D01*
X356952380Y-82314285D01*
X356904761Y-82409523D01*
X356809523Y-82504761D01*
X356666666Y-82552380D01*
X356428571Y-82552380D01*
X357333333Y-81552380D02*
X357952380Y-81552380D01*
X357619047Y-81933333D01*
X357761904Y-81933333D01*
X357857142Y-81980952D01*
X357904761Y-82028571D01*
X357952380Y-82123809D01*
X357952380Y-82361904D01*
X357904761Y-82457142D01*
X357857142Y-82504761D01*
X357761904Y-82552380D01*
X357476190Y-82552380D01*
X357380952Y-82504761D01*
X357333333Y-82457142D01*
X164854835Y-89389333D02*
X164902454Y-89246476D01*
X164902454Y-89008380D01*
X164854835Y-88913142D01*
X164807216Y-88865523D01*
X164711978Y-88817904D01*
X164616740Y-88817904D01*
X164521502Y-88865523D01*
X164473883Y-88913142D01*
X164426264Y-89008380D01*
X164378645Y-89198857D01*
X164331026Y-89294095D01*
X164283407Y-89341714D01*
X164188169Y-89389333D01*
X164092931Y-89389333D01*
X163997693Y-89341714D01*
X163950074Y-89294095D01*
X163902454Y-89198857D01*
X163902454Y-88960761D01*
X163950074Y-88817904D01*
X163902454Y-88484571D02*
X164902454Y-88246476D01*
X164188169Y-88056000D01*
X164902454Y-87865523D01*
X163902454Y-87627428D01*
X164902454Y-86722666D02*
X164902454Y-87294095D01*
X164902454Y-87008380D02*
X163902454Y-87008380D01*
X164045312Y-87103619D01*
X164140550Y-87198857D01*
X164188169Y-87294095D01*
X167427142Y-191663142D02*
X167379523Y-191710761D01*
X167236666Y-191758380D01*
X167141428Y-191758380D01*
X166998571Y-191710761D01*
X166903333Y-191615523D01*
X166855714Y-191520285D01*
X166808095Y-191329809D01*
X166808095Y-191186952D01*
X166855714Y-190996476D01*
X166903333Y-190901238D01*
X166998571Y-190806000D01*
X167141428Y-190758380D01*
X167236666Y-190758380D01*
X167379523Y-190806000D01*
X167427142Y-190853619D01*
X167808095Y-190853619D02*
X167855714Y-190806000D01*
X167950952Y-190758380D01*
X168189047Y-190758380D01*
X168284285Y-190806000D01*
X168331904Y-190853619D01*
X168379523Y-190948857D01*
X168379523Y-191044095D01*
X168331904Y-191186952D01*
X167760476Y-191758380D01*
X168379523Y-191758380D01*
X168760476Y-190853619D02*
X168808095Y-190806000D01*
X168903333Y-190758380D01*
X169141428Y-190758380D01*
X169236666Y-190806000D01*
X169284285Y-190853619D01*
X169331904Y-190948857D01*
X169331904Y-191044095D01*
X169284285Y-191186952D01*
X168712857Y-191758380D01*
X169331904Y-191758380D01*
X260733095Y-79052380D02*
X260733095Y-78052380D01*
X260733095Y-78528571D02*
X261304523Y-78528571D01*
X261304523Y-79052380D02*
X261304523Y-78052380D01*
X261685476Y-78052380D02*
X262304523Y-78052380D01*
X261971190Y-78433333D01*
X262114047Y-78433333D01*
X262209285Y-78480952D01*
X262256904Y-78528571D01*
X262304523Y-78623809D01*
X262304523Y-78861904D01*
X262256904Y-78957142D01*
X262209285Y-79004761D01*
X262114047Y-79052380D01*
X261828333Y-79052380D01*
X261733095Y-79004761D01*
X261685476Y-78957142D01*
X160736904Y-192158380D02*
X160736904Y-192967904D01*
X160784523Y-193063142D01*
X160832142Y-193110761D01*
X160927380Y-193158380D01*
X161117857Y-193158380D01*
X161213095Y-193110761D01*
X161260714Y-193063142D01*
X161308333Y-192967904D01*
X161308333Y-192158380D01*
X161736904Y-192253619D02*
X161784523Y-192206000D01*
X161879761Y-192158380D01*
X162117857Y-192158380D01*
X162213095Y-192206000D01*
X162260714Y-192253619D01*
X162308333Y-192348857D01*
X162308333Y-192444095D01*
X162260714Y-192586952D01*
X161689285Y-193158380D01*
X162308333Y-193158380D01*
X163165476Y-192491714D02*
X163165476Y-193158380D01*
X162927380Y-192110761D02*
X162689285Y-192825047D01*
X163308333Y-192825047D01*
X350238095Y-74752380D02*
X350238095Y-73752380D01*
X350238095Y-74228571D02*
X350809523Y-74228571D01*
X350809523Y-74752380D02*
X350809523Y-73752380D01*
X351714285Y-74085714D02*
X351714285Y-74752380D01*
X351476190Y-73704761D02*
X351238095Y-74419047D01*
X351857142Y-74419047D01*
X118352454Y-141244095D02*
X119161978Y-141244095D01*
X119257216Y-141196476D01*
X119304835Y-141148857D01*
X119352454Y-141053619D01*
X119352454Y-140863142D01*
X119304835Y-140767904D01*
X119257216Y-140720285D01*
X119161978Y-140672666D01*
X118352454Y-140672666D01*
X119352454Y-139672666D02*
X119352454Y-140244095D01*
X119352454Y-139958380D02*
X118352454Y-139958380D01*
X118495312Y-140053619D01*
X118590550Y-140148857D01*
X118638169Y-140244095D01*
X119352454Y-139196476D02*
X119352454Y-139006000D01*
X119304835Y-138910761D01*
X119257216Y-138863142D01*
X119114359Y-138767904D01*
X118923883Y-138720285D01*
X118542931Y-138720285D01*
X118447693Y-138767904D01*
X118400074Y-138815523D01*
X118352454Y-138910761D01*
X118352454Y-139101238D01*
X118400074Y-139196476D01*
X118447693Y-139244095D01*
X118542931Y-139291714D01*
X118781026Y-139291714D01*
X118876264Y-139244095D01*
X118923883Y-139196476D01*
X118971502Y-139101238D01*
X118971502Y-138910761D01*
X118923883Y-138815523D01*
X118876264Y-138767904D01*
X118781026Y-138720285D01*
X78428571Y-204428571D02*
X78095238Y-204428571D01*
X78095238Y-204952380D02*
X78095238Y-203952380D01*
X78571428Y-203952380D01*
X78952380Y-204952380D02*
X78952380Y-203952380D01*
X79428571Y-204952380D02*
X79428571Y-203952380D01*
X79666666Y-203952380D01*
X79809523Y-204000000D01*
X79904761Y-204095238D01*
X79952380Y-204190476D01*
X80000000Y-204380952D01*
X80000000Y-204523809D01*
X79952380Y-204714285D01*
X79904761Y-204809523D01*
X79809523Y-204904761D01*
X79666666Y-204952380D01*
X79428571Y-204952380D01*
X80380952Y-204047619D02*
X80428571Y-204000000D01*
X80523809Y-203952380D01*
X80761904Y-203952380D01*
X80857142Y-204000000D01*
X80904761Y-204047619D01*
X80952380Y-204142857D01*
X80952380Y-204238095D01*
X80904761Y-204380952D01*
X80333333Y-204952380D01*
X80952380Y-204952380D01*
X92363375Y-139198857D02*
X92410994Y-139246476D01*
X92458613Y-139389333D01*
X92458613Y-139484571D01*
X92410994Y-139627428D01*
X92315756Y-139722666D01*
X92220518Y-139770285D01*
X92030042Y-139817904D01*
X91887185Y-139817904D01*
X91696709Y-139770285D01*
X91601471Y-139722666D01*
X91506233Y-139627428D01*
X91458613Y-139484571D01*
X91458613Y-139389333D01*
X91506233Y-139246476D01*
X91553852Y-139198857D01*
X92458613Y-138246476D02*
X92458613Y-138817904D01*
X92458613Y-138532190D02*
X91458613Y-138532190D01*
X91601471Y-138627428D01*
X91696709Y-138722666D01*
X91744328Y-138817904D01*
X91458613Y-137389333D02*
X91458613Y-137579809D01*
X91506233Y-137675047D01*
X91553852Y-137722666D01*
X91696709Y-137817904D01*
X91887185Y-137865523D01*
X92268137Y-137865523D01*
X92363375Y-137817904D01*
X92410994Y-137770285D01*
X92458613Y-137675047D01*
X92458613Y-137484571D01*
X92410994Y-137389333D01*
X92363375Y-137341714D01*
X92268137Y-137294095D01*
X92030042Y-137294095D01*
X91934804Y-137341714D01*
X91887185Y-137389333D01*
X91839566Y-137484571D01*
X91839566Y-137675047D01*
X91887185Y-137770285D01*
X91934804Y-137817904D01*
X92030042Y-137865523D01*
X167702142Y-185948857D02*
X167749761Y-185996476D01*
X167797380Y-186139333D01*
X167797380Y-186234571D01*
X167749761Y-186377428D01*
X167654523Y-186472666D01*
X167559285Y-186520285D01*
X167368809Y-186567904D01*
X167225952Y-186567904D01*
X167035476Y-186520285D01*
X166940238Y-186472666D01*
X166845000Y-186377428D01*
X166797380Y-186234571D01*
X166797380Y-186139333D01*
X166845000Y-185996476D01*
X166892619Y-185948857D01*
X166892619Y-185567904D02*
X166845000Y-185520285D01*
X166797380Y-185425047D01*
X166797380Y-185186952D01*
X166845000Y-185091714D01*
X166892619Y-185044095D01*
X166987857Y-184996476D01*
X167083095Y-184996476D01*
X167225952Y-185044095D01*
X167797380Y-185615523D01*
X167797380Y-184996476D01*
X166797380Y-184663142D02*
X166797380Y-184044095D01*
X167178333Y-184377428D01*
X167178333Y-184234571D01*
X167225952Y-184139333D01*
X167273571Y-184091714D01*
X167368809Y-184044095D01*
X167606904Y-184044095D01*
X167702142Y-184091714D01*
X167749761Y-184139333D01*
X167797380Y-184234571D01*
X167797380Y-184520285D01*
X167749761Y-184615523D01*
X167702142Y-184663142D01*
X73538095Y-136308380D02*
X73538095Y-135308380D01*
X73538095Y-135784571D02*
X74109523Y-135784571D01*
X74109523Y-136308380D02*
X74109523Y-135308380D01*
X75061904Y-135308380D02*
X74585714Y-135308380D01*
X74538095Y-135784571D01*
X74585714Y-135736952D01*
X74680952Y-135689333D01*
X74919047Y-135689333D01*
X75014285Y-135736952D01*
X75061904Y-135784571D01*
X75109523Y-135879809D01*
X75109523Y-136117904D01*
X75061904Y-136213142D01*
X75014285Y-136260761D01*
X74919047Y-136308380D01*
X74680952Y-136308380D01*
X74585714Y-136260761D01*
X74538095Y-136213142D01*
X172581904Y-191308380D02*
X172581904Y-192117904D01*
X172629523Y-192213142D01*
X172677142Y-192260761D01*
X172772380Y-192308380D01*
X172962857Y-192308380D01*
X173058095Y-192260761D01*
X173105714Y-192213142D01*
X173153333Y-192117904D01*
X173153333Y-191308380D01*
X173581904Y-191403619D02*
X173629523Y-191356000D01*
X173724761Y-191308380D01*
X173962857Y-191308380D01*
X174058095Y-191356000D01*
X174105714Y-191403619D01*
X174153333Y-191498857D01*
X174153333Y-191594095D01*
X174105714Y-191736952D01*
X173534285Y-192308380D01*
X174153333Y-192308380D01*
X174534285Y-191403619D02*
X174581904Y-191356000D01*
X174677142Y-191308380D01*
X174915238Y-191308380D01*
X175010476Y-191356000D01*
X175058095Y-191403619D01*
X175105714Y-191498857D01*
X175105714Y-191594095D01*
X175058095Y-191736952D01*
X174486666Y-192308380D01*
X175105714Y-192308380D01*
X354461904Y-201952380D02*
X354461904Y-200952380D01*
X354461904Y-201428571D02*
X355033333Y-201428571D01*
X355033333Y-201952380D02*
X355033333Y-200952380D01*
X356033333Y-201952380D02*
X355461904Y-201952380D01*
X355747619Y-201952380D02*
X355747619Y-200952380D01*
X355652380Y-201095238D01*
X355557142Y-201190476D01*
X355461904Y-201238095D01*
X356652380Y-200952380D02*
X356747619Y-200952380D01*
X356842857Y-201000000D01*
X356890476Y-201047619D01*
X356938095Y-201142857D01*
X356985714Y-201333333D01*
X356985714Y-201571428D01*
X356938095Y-201761904D01*
X356890476Y-201857142D01*
X356842857Y-201904761D01*
X356747619Y-201952380D01*
X356652380Y-201952380D01*
X356557142Y-201904761D01*
X356509523Y-201857142D01*
X356461904Y-201761904D01*
X356414285Y-201571428D01*
X356414285Y-201333333D01*
X356461904Y-201142857D01*
X356509523Y-201047619D01*
X356557142Y-201000000D01*
X356652380Y-200952380D01*
X153261666Y-184808380D02*
X153261666Y-185522666D01*
X153214047Y-185665523D01*
X153118809Y-185760761D01*
X152975952Y-185808380D01*
X152880714Y-185808380D01*
X153737857Y-185808380D02*
X153737857Y-184808380D01*
X154118809Y-184808380D01*
X154214047Y-184856000D01*
X154261666Y-184903619D01*
X154309285Y-184998857D01*
X154309285Y-185141714D01*
X154261666Y-185236952D01*
X154214047Y-185284571D01*
X154118809Y-185332190D01*
X153737857Y-185332190D01*
X155261666Y-185808380D02*
X154690238Y-185808380D01*
X154975952Y-185808380D02*
X154975952Y-184808380D01*
X154880714Y-184951238D01*
X154785476Y-185046476D01*
X154690238Y-185094095D01*
X304363375Y-139198857D02*
X304410994Y-139246476D01*
X304458613Y-139389333D01*
X304458613Y-139484571D01*
X304410994Y-139627428D01*
X304315756Y-139722666D01*
X304220518Y-139770285D01*
X304030042Y-139817904D01*
X303887185Y-139817904D01*
X303696709Y-139770285D01*
X303601471Y-139722666D01*
X303506233Y-139627428D01*
X303458613Y-139484571D01*
X303458613Y-139389333D01*
X303506233Y-139246476D01*
X303553852Y-139198857D01*
X304458613Y-138246476D02*
X304458613Y-138817904D01*
X304458613Y-138532190D02*
X303458613Y-138532190D01*
X303601471Y-138627428D01*
X303696709Y-138722666D01*
X303744328Y-138817904D01*
X303458613Y-137913142D02*
X303458613Y-137246476D01*
X304458613Y-137675047D01*
X128217887Y-138303299D02*
X127884554Y-137827109D01*
X127646458Y-138303299D02*
X127646458Y-137303299D01*
X128027411Y-137303299D01*
X128122649Y-137350919D01*
X128170268Y-137398538D01*
X128217887Y-137493776D01*
X128217887Y-137636633D01*
X128170268Y-137731871D01*
X128122649Y-137779490D01*
X128027411Y-137827109D01*
X127646458Y-137827109D01*
X129170268Y-138303299D02*
X128598839Y-138303299D01*
X128884554Y-138303299D02*
X128884554Y-137303299D01*
X128789315Y-137446157D01*
X128694077Y-137541395D01*
X128598839Y-137589014D01*
X224352454Y-141244095D02*
X225161978Y-141244095D01*
X225257216Y-141196476D01*
X225304835Y-141148857D01*
X225352454Y-141053619D01*
X225352454Y-140863142D01*
X225304835Y-140767904D01*
X225257216Y-140720285D01*
X225161978Y-140672666D01*
X224352454Y-140672666D01*
X224447693Y-140244095D02*
X224400074Y-140196476D01*
X224352454Y-140101238D01*
X224352454Y-139863142D01*
X224400074Y-139767904D01*
X224447693Y-139720285D01*
X224542931Y-139672666D01*
X224638169Y-139672666D01*
X224781026Y-139720285D01*
X225352454Y-140291714D01*
X225352454Y-139672666D01*
X225352454Y-138720285D02*
X225352454Y-139291714D01*
X225352454Y-139006000D02*
X224352454Y-139006000D01*
X224495312Y-139101238D01*
X224590550Y-139196476D01*
X224638169Y-139291714D01*
X120552142Y-134233142D02*
X120504523Y-134280761D01*
X120361666Y-134328380D01*
X120266428Y-134328380D01*
X120123571Y-134280761D01*
X120028333Y-134185523D01*
X119980714Y-134090285D01*
X119933095Y-133899809D01*
X119933095Y-133756952D01*
X119980714Y-133566476D01*
X120028333Y-133471238D01*
X120123571Y-133376000D01*
X120266428Y-133328380D01*
X120361666Y-133328380D01*
X120504523Y-133376000D01*
X120552142Y-133423619D01*
X121504523Y-134328380D02*
X120933095Y-134328380D01*
X121218809Y-134328380D02*
X121218809Y-133328380D01*
X121123571Y-133471238D01*
X121028333Y-133566476D01*
X120933095Y-133614095D01*
X121837857Y-133328380D02*
X122456904Y-133328380D01*
X122123571Y-133709333D01*
X122266428Y-133709333D01*
X122361666Y-133756952D01*
X122409285Y-133804571D01*
X122456904Y-133899809D01*
X122456904Y-134137904D01*
X122409285Y-134233142D01*
X122361666Y-134280761D01*
X122266428Y-134328380D01*
X121980714Y-134328380D01*
X121885476Y-134280761D01*
X121837857Y-134233142D01*
X167833095Y-79152380D02*
X167833095Y-78152380D01*
X167833095Y-78628571D02*
X168404523Y-78628571D01*
X168404523Y-79152380D02*
X168404523Y-78152380D01*
X168833095Y-78247619D02*
X168880714Y-78200000D01*
X168975952Y-78152380D01*
X169214047Y-78152380D01*
X169309285Y-78200000D01*
X169356904Y-78247619D01*
X169404523Y-78342857D01*
X169404523Y-78438095D01*
X169356904Y-78580952D01*
X168785476Y-79152380D01*
X169404523Y-79152380D01*
X73538095Y-201952380D02*
X73538095Y-200952380D01*
X73538095Y-201428571D02*
X74109523Y-201428571D01*
X74109523Y-201952380D02*
X74109523Y-200952380D01*
X74490476Y-200952380D02*
X75157142Y-200952380D01*
X74728571Y-201952380D01*
X349428571Y-204428571D02*
X349095238Y-204428571D01*
X349095238Y-204952380D02*
X349095238Y-203952380D01*
X349571428Y-203952380D01*
X349952380Y-204952380D02*
X349952380Y-203952380D01*
X350428571Y-204952380D02*
X350428571Y-203952380D01*
X350666666Y-203952380D01*
X350809523Y-204000000D01*
X350904761Y-204095238D01*
X350952380Y-204190476D01*
X351000000Y-204380952D01*
X351000000Y-204523809D01*
X350952380Y-204714285D01*
X350904761Y-204809523D01*
X350809523Y-204904761D01*
X350666666Y-204952380D01*
X350428571Y-204952380D01*
X351857142Y-204285714D02*
X351857142Y-204952380D01*
X351619047Y-203904761D02*
X351380952Y-204619047D01*
X352000000Y-204619047D01*
X170452142Y-185948857D02*
X170499761Y-185996476D01*
X170547380Y-186139333D01*
X170547380Y-186234571D01*
X170499761Y-186377428D01*
X170404523Y-186472666D01*
X170309285Y-186520285D01*
X170118809Y-186567904D01*
X169975952Y-186567904D01*
X169785476Y-186520285D01*
X169690238Y-186472666D01*
X169595000Y-186377428D01*
X169547380Y-186234571D01*
X169547380Y-186139333D01*
X169595000Y-185996476D01*
X169642619Y-185948857D01*
X169642619Y-185567904D02*
X169595000Y-185520285D01*
X169547380Y-185425047D01*
X169547380Y-185186952D01*
X169595000Y-185091714D01*
X169642619Y-185044095D01*
X169737857Y-184996476D01*
X169833095Y-184996476D01*
X169975952Y-185044095D01*
X170547380Y-185615523D01*
X170547380Y-184996476D01*
X169547380Y-184091714D02*
X169547380Y-184567904D01*
X170023571Y-184615523D01*
X169975952Y-184567904D01*
X169928333Y-184472666D01*
X169928333Y-184234571D01*
X169975952Y-184139333D01*
X170023571Y-184091714D01*
X170118809Y-184044095D01*
X170356904Y-184044095D01*
X170452142Y-184091714D01*
X170499761Y-184139333D01*
X170547380Y-184234571D01*
X170547380Y-184472666D01*
X170499761Y-184567904D01*
X170452142Y-184615523D01*
X311882142Y-146048857D02*
X311929761Y-146096476D01*
X311977380Y-146239333D01*
X311977380Y-146334571D01*
X311929761Y-146477428D01*
X311834523Y-146572666D01*
X311739285Y-146620285D01*
X311548809Y-146667904D01*
X311405952Y-146667904D01*
X311215476Y-146620285D01*
X311120238Y-146572666D01*
X311025000Y-146477428D01*
X310977380Y-146334571D01*
X310977380Y-146239333D01*
X311025000Y-146096476D01*
X311072619Y-146048857D01*
X311072619Y-145667904D02*
X311025000Y-145620285D01*
X310977380Y-145525047D01*
X310977380Y-145286952D01*
X311025000Y-145191714D01*
X311072619Y-145144095D01*
X311167857Y-145096476D01*
X311263095Y-145096476D01*
X311405952Y-145144095D01*
X311977380Y-145715523D01*
X311977380Y-145096476D01*
X310977380Y-144477428D02*
X310977380Y-144382190D01*
X311025000Y-144286952D01*
X311072619Y-144239333D01*
X311167857Y-144191714D01*
X311358333Y-144144095D01*
X311596428Y-144144095D01*
X311786904Y-144191714D01*
X311882142Y-144239333D01*
X311929761Y-144286952D01*
X311977380Y-144382190D01*
X311977380Y-144477428D01*
X311929761Y-144572666D01*
X311882142Y-144620285D01*
X311786904Y-144667904D01*
X311596428Y-144715523D01*
X311358333Y-144715523D01*
X311167857Y-144667904D01*
X311072619Y-144620285D01*
X311025000Y-144572666D01*
X310977380Y-144477428D01*
X179607142Y-190098857D02*
X179654761Y-190146476D01*
X179702380Y-190289333D01*
X179702380Y-190384571D01*
X179654761Y-190527428D01*
X179559523Y-190622666D01*
X179464285Y-190670285D01*
X179273809Y-190717904D01*
X179130952Y-190717904D01*
X178940476Y-190670285D01*
X178845238Y-190622666D01*
X178750000Y-190527428D01*
X178702380Y-190384571D01*
X178702380Y-190289333D01*
X178750000Y-190146476D01*
X178797619Y-190098857D01*
X178797619Y-189717904D02*
X178750000Y-189670285D01*
X178702380Y-189575047D01*
X178702380Y-189336952D01*
X178750000Y-189241714D01*
X178797619Y-189194095D01*
X178892857Y-189146476D01*
X178988095Y-189146476D01*
X179130952Y-189194095D01*
X179702380Y-189765523D01*
X179702380Y-189146476D01*
X179035714Y-188289333D02*
X179702380Y-188289333D01*
X178654761Y-188527428D02*
X179369047Y-188765523D01*
X179369047Y-188146476D01*
X176945700Y-184962394D02*
X176469510Y-185295728D01*
X176945700Y-185533823D02*
X175945700Y-185533823D01*
X175945700Y-185152870D01*
X175993320Y-185057632D01*
X176040939Y-185010013D01*
X176136177Y-184962394D01*
X176279034Y-184962394D01*
X176374272Y-185010013D01*
X176421891Y-185057632D01*
X176469510Y-185152870D01*
X176469510Y-185533823D01*
X175945700Y-184629061D02*
X175945700Y-184010013D01*
X176326653Y-184343347D01*
X176326653Y-184200489D01*
X176374272Y-184105251D01*
X176421891Y-184057632D01*
X176517129Y-184010013D01*
X176755224Y-184010013D01*
X176850462Y-184057632D01*
X176898081Y-184105251D01*
X176945700Y-184200489D01*
X176945700Y-184486204D01*
X176898081Y-184581442D01*
X176850462Y-184629061D01*
X354938095Y-136308380D02*
X354938095Y-135308380D01*
X354938095Y-135784571D02*
X355509523Y-135784571D01*
X355509523Y-136308380D02*
X355509523Y-135308380D01*
X356414285Y-135308380D02*
X356223809Y-135308380D01*
X356128571Y-135356000D01*
X356080952Y-135403619D01*
X355985714Y-135546476D01*
X355938095Y-135736952D01*
X355938095Y-136117904D01*
X355985714Y-136213142D01*
X356033333Y-136260761D01*
X356128571Y-136308380D01*
X356319047Y-136308380D01*
X356414285Y-136260761D01*
X356461904Y-136213142D01*
X356509523Y-136117904D01*
X356509523Y-135879809D01*
X356461904Y-135784571D01*
X356414285Y-135736952D01*
X356319047Y-135689333D01*
X356128571Y-135689333D01*
X356033333Y-135736952D01*
X355985714Y-135784571D01*
X355938095Y-135879809D01*
X198363375Y-139198857D02*
X198410994Y-139246476D01*
X198458613Y-139389333D01*
X198458613Y-139484571D01*
X198410994Y-139627428D01*
X198315756Y-139722666D01*
X198220518Y-139770285D01*
X198030042Y-139817904D01*
X197887185Y-139817904D01*
X197696709Y-139770285D01*
X197601471Y-139722666D01*
X197506233Y-139627428D01*
X197458613Y-139484571D01*
X197458613Y-139389333D01*
X197506233Y-139246476D01*
X197553852Y-139198857D01*
X198458613Y-138246476D02*
X198458613Y-138817904D01*
X198458613Y-138532190D02*
X197458613Y-138532190D01*
X197601471Y-138627428D01*
X197696709Y-138722666D01*
X197744328Y-138817904D01*
X197887185Y-137675047D02*
X197839566Y-137770285D01*
X197791947Y-137817904D01*
X197696709Y-137865523D01*
X197649090Y-137865523D01*
X197553852Y-137817904D01*
X197506233Y-137770285D01*
X197458613Y-137675047D01*
X197458613Y-137484571D01*
X197506233Y-137389333D01*
X197553852Y-137341714D01*
X197649090Y-137294095D01*
X197696709Y-137294095D01*
X197791947Y-137341714D01*
X197839566Y-137389333D01*
X197887185Y-137484571D01*
X197887185Y-137675047D01*
X197934804Y-137770285D01*
X197982423Y-137817904D01*
X198077661Y-137865523D01*
X198268137Y-137865523D01*
X198363375Y-137817904D01*
X198410994Y-137770285D01*
X198458613Y-137675047D01*
X198458613Y-137484571D01*
X198410994Y-137389333D01*
X198363375Y-137341714D01*
X198268137Y-137294095D01*
X198077661Y-137294095D01*
X197982423Y-137341714D01*
X197934804Y-137389333D01*
X197887185Y-137484571D01*
X78138095Y-74752380D02*
X78138095Y-73752380D01*
X78138095Y-74228571D02*
X78709523Y-74228571D01*
X78709523Y-74752380D02*
X78709523Y-73752380D01*
X79709523Y-74752380D02*
X79138095Y-74752380D01*
X79423809Y-74752380D02*
X79423809Y-73752380D01*
X79328571Y-73895238D01*
X79233333Y-73990476D01*
X79138095Y-74038095D01*
X164852454Y-181544095D02*
X165661978Y-181544095D01*
X165757216Y-181496476D01*
X165804835Y-181448857D01*
X165852454Y-181353619D01*
X165852454Y-181163142D01*
X165804835Y-181067904D01*
X165757216Y-181020285D01*
X165661978Y-180972666D01*
X164852454Y-180972666D01*
X164947693Y-180544095D02*
X164900074Y-180496476D01*
X164852454Y-180401238D01*
X164852454Y-180163142D01*
X164900074Y-180067904D01*
X164947693Y-180020285D01*
X165042931Y-179972666D01*
X165138169Y-179972666D01*
X165281026Y-180020285D01*
X165852454Y-180591714D01*
X165852454Y-179972666D01*
X164852454Y-179639333D02*
X164852454Y-179020285D01*
X165233407Y-179353619D01*
X165233407Y-179210761D01*
X165281026Y-179115523D01*
X165328645Y-179067904D01*
X165423883Y-179020285D01*
X165661978Y-179020285D01*
X165757216Y-179067904D01*
X165804835Y-179115523D01*
X165852454Y-179210761D01*
X165852454Y-179496476D01*
X165804835Y-179591714D01*
X165757216Y-179639333D01*
X72428571Y-81828571D02*
X72095238Y-81828571D01*
X72095238Y-82352380D02*
X72095238Y-81352380D01*
X72571428Y-81352380D01*
X72952380Y-82352380D02*
X72952380Y-81352380D01*
X73428571Y-82352380D02*
X73428571Y-81352380D01*
X73666666Y-81352380D01*
X73809523Y-81400000D01*
X73904761Y-81495238D01*
X73952380Y-81590476D01*
X74000000Y-81780952D01*
X74000000Y-81923809D01*
X73952380Y-82114285D01*
X73904761Y-82209523D01*
X73809523Y-82304761D01*
X73666666Y-82352380D01*
X73428571Y-82352380D01*
X74952380Y-82352380D02*
X74380952Y-82352380D01*
X74666666Y-82352380D02*
X74666666Y-81352380D01*
X74571428Y-81495238D01*
X74476190Y-81590476D01*
X74380952Y-81638095D01*
D12*
X122620000Y-178250112D02*
X95370000Y-178250112D01*
X122620000Y-207750112D02*
X95370000Y-207750112D01*
X138750000Y-197700112D02*
X138750000Y-188300112D01*
X79250000Y-197700112D02*
X79250000Y-188300112D01*
X79249771Y-197699556D02*
G75*
G03*
X91730000Y-207900112I14355231J4828447D01*
G01*
X126269638Y-207899865D02*
G75*
G03*
X138750000Y-197700112I-1765638J14895753D01*
G01*
X91730600Y-178100077D02*
G75*
G03*
X79250000Y-188300112I1874400J-15029035D01*
G01*
X138750377Y-188300335D02*
G75*
G03*
X126270000Y-178100112I-14246377J-4695777D01*
G01*
X126750000Y-206500112D02*
G75*
G03*
X126750000Y-206500112I-2250000J0D01*
G01*
X95750000Y-206500112D02*
G75*
G03*
X95750000Y-206500112I-2250000J0D01*
G01*
X95750000Y-179500112D02*
G75*
G03*
X95750000Y-179500112I-2250000J0D01*
G01*
X126750000Y-179500112D02*
G75*
G03*
X126750000Y-179500112I-2250000J0D01*
G01*
X111995000Y-193000112D02*
G75*
G03*
X111995000Y-193000112I-3000000J0D01*
G01*
X228620000Y-178250112D02*
X201370000Y-178250112D01*
X228620000Y-207750112D02*
X201370000Y-207750112D01*
X244750000Y-197700112D02*
X244750000Y-188300112D01*
X185250000Y-197700112D02*
X185250000Y-188300112D01*
X185249771Y-197699556D02*
G75*
G03*
X197730000Y-207900112I14355231J4828447D01*
G01*
X232269638Y-207899865D02*
G75*
G03*
X244750000Y-197700112I-1765638J14895753D01*
G01*
X197730600Y-178100077D02*
G75*
G03*
X185250000Y-188300112I1874400J-15029035D01*
G01*
X244750377Y-188300335D02*
G75*
G03*
X232270000Y-178100112I-14246377J-4695777D01*
G01*
X232750000Y-206500112D02*
G75*
G03*
X232750000Y-206500112I-2250000J0D01*
G01*
X201750000Y-206500112D02*
G75*
G03*
X201750000Y-206500112I-2250000J0D01*
G01*
X201750000Y-179500112D02*
G75*
G03*
X201750000Y-179500112I-2250000J0D01*
G01*
X232750000Y-179500112D02*
G75*
G03*
X232750000Y-179500112I-2250000J0D01*
G01*
X217995000Y-193000112D02*
G75*
G03*
X217995000Y-193000112I-3000000J0D01*
G01*
X334620000Y-178250000D02*
X307370000Y-178250000D01*
X334620000Y-207750000D02*
X307370000Y-207750000D01*
X350750000Y-197700000D02*
X350750000Y-188300000D01*
X291250000Y-197700000D02*
X291250000Y-188300000D01*
X291249771Y-197699444D02*
G75*
G03*
X303730000Y-207900000I14355231J4828447D01*
G01*
X338269638Y-207899753D02*
G75*
G03*
X350750000Y-197700000I-1765638J14895753D01*
G01*
X303730600Y-178099965D02*
G75*
G03*
X291250000Y-188300000I1874400J-15029035D01*
G01*
X350750377Y-188300223D02*
G75*
G03*
X338270000Y-178100000I-14246377J-4695777D01*
G01*
X338750000Y-206500000D02*
G75*
G03*
X338750000Y-206500000I-2250000J0D01*
G01*
X307750000Y-206500000D02*
G75*
G03*
X307750000Y-206500000I-2250000J0D01*
G01*
X307750000Y-179500000D02*
G75*
G03*
X307750000Y-179500000I-2250000J0D01*
G01*
X338750000Y-179500000D02*
G75*
G03*
X338750000Y-179500000I-2250000J0D01*
G01*
X323995000Y-193000000D02*
G75*
G03*
X323995000Y-193000000I-3000000J0D01*
G01*
X334620000Y-72250112D02*
X307370000Y-72250112D01*
X334620000Y-101750112D02*
X307370000Y-101750112D01*
X350750000Y-91700112D02*
X350750000Y-82300112D01*
X291250000Y-91700112D02*
X291250000Y-82300112D01*
X291249771Y-91699556D02*
G75*
G03*
X303730000Y-101900112I14355231J4828447D01*
G01*
X338269638Y-101899865D02*
G75*
G03*
X350750000Y-91700112I-1765638J14895753D01*
G01*
X303730600Y-72100077D02*
G75*
G03*
X291250000Y-82300112I1874400J-15029035D01*
G01*
X350750377Y-82300335D02*
G75*
G03*
X338270000Y-72100112I-14246377J-4695777D01*
G01*
X338750000Y-100500112D02*
G75*
G03*
X338750000Y-100500112I-2250000J0D01*
G01*
X307750000Y-100500112D02*
G75*
G03*
X307750000Y-100500112I-2250000J0D01*
G01*
X307750000Y-73500112D02*
G75*
G03*
X307750000Y-73500112I-2250000J0D01*
G01*
X338750000Y-73500112D02*
G75*
G03*
X338750000Y-73500112I-2250000J0D01*
G01*
X323995000Y-87000112D02*
G75*
G03*
X323995000Y-87000112I-3000000J0D01*
G01*
X228620209Y-72250379D02*
X201370209Y-72250379D01*
X228620209Y-101750379D02*
X201370209Y-101750379D01*
X244750209Y-91700379D02*
X244750209Y-82300379D01*
X185250209Y-91700379D02*
X185250209Y-82300379D01*
X185249980Y-91699823D02*
G75*
G03*
X197730209Y-101900379I14355231J4828447D01*
G01*
X232269847Y-101900132D02*
G75*
G03*
X244750209Y-91700379I-1765638J14895753D01*
G01*
X197730809Y-72100344D02*
G75*
G03*
X185250209Y-82300379I1874400J-15029035D01*
G01*
X244750586Y-82300602D02*
G75*
G03*
X232270209Y-72100379I-14246377J-4695777D01*
G01*
X232750209Y-100500379D02*
G75*
G03*
X232750209Y-100500379I-2250000J0D01*
G01*
X201750209Y-100500379D02*
G75*
G03*
X201750209Y-100500379I-2250000J0D01*
G01*
X201750209Y-73500379D02*
G75*
G03*
X201750209Y-73500379I-2250000J0D01*
G01*
X232750209Y-73500379D02*
G75*
G03*
X232750209Y-73500379I-2250000J0D01*
G01*
X217995209Y-87000379D02*
G75*
G03*
X217995209Y-87000379I-3000000J0D01*
G01*
X122620000Y-72250000D02*
X95370000Y-72250000D01*
X122620000Y-101750000D02*
X95370000Y-101750000D01*
X138750000Y-91700000D02*
X138750000Y-82300000D01*
X79250000Y-91700000D02*
X79250000Y-82300000D01*
X79249771Y-91699444D02*
G75*
G03*
X91730000Y-101900000I14355231J4828447D01*
G01*
X126269638Y-101899753D02*
G75*
G03*
X138750000Y-91700000I-1765638J14895753D01*
G01*
X91730600Y-72099965D02*
G75*
G03*
X79250000Y-82300000I1874400J-15029035D01*
G01*
X138750377Y-82300223D02*
G75*
G03*
X126270000Y-72100000I-14246377J-4695777D01*
G01*
X126750000Y-100500000D02*
G75*
G03*
X126750000Y-100500000I-2250000J0D01*
G01*
X95750000Y-100500000D02*
G75*
G03*
X95750000Y-100500000I-2250000J0D01*
G01*
X95750000Y-73500000D02*
G75*
G03*
X95750000Y-73500000I-2250000J0D01*
G01*
X126750000Y-73500000D02*
G75*
G03*
X126750000Y-73500000I-2250000J0D01*
G01*
X111995000Y-87000000D02*
G75*
G03*
X111995000Y-87000000I-3000000J0D01*
G01*
D13*
X246832323Y-106256217D02*
X246832323Y-110156217D01*
X246832323Y-106256217D02*
X244832323Y-106256217D01*
X244832323Y-106256217D02*
X244832323Y-110156217D01*
X246829178Y-173363492D02*
X246829178Y-169463492D01*
X244829178Y-173363492D02*
X246829178Y-173363492D01*
X244829178Y-173363492D02*
X244829178Y-169463492D01*
X352844074Y-173363492D02*
X352844074Y-169463492D01*
X350844074Y-173363492D02*
X352844074Y-173363492D01*
X350844074Y-173363492D02*
X350844074Y-169463492D01*
X352849823Y-106256217D02*
X352849823Y-110156217D01*
X352849823Y-106256217D02*
X350849823Y-106256217D01*
X350849823Y-106256217D02*
X350849823Y-110156217D01*
X140867908Y-106256217D02*
X140867908Y-110156217D01*
X140867908Y-106256217D02*
X138867908Y-106256217D01*
X138867908Y-106256217D02*
X138867908Y-110156217D01*
X138841798Y-173363492D02*
X138841798Y-169463492D01*
X138841798Y-173363492D02*
X140841798Y-173363492D01*
X140841798Y-173363492D02*
X140841798Y-169463492D01*
X241354351Y-106256217D02*
X241354351Y-110156217D01*
X241354351Y-106256217D02*
X239354351Y-106256217D01*
X239354351Y-106256217D02*
X239354351Y-110156217D01*
X241347330Y-173363492D02*
X241347330Y-169463492D01*
X239347330Y-173363492D02*
X241347330Y-173363492D01*
X239347330Y-173363492D02*
X239347330Y-169463492D01*
X345352675Y-173363492D02*
X345352675Y-169463492D01*
X345352675Y-173363492D02*
X347352675Y-173363492D01*
X347352675Y-173363492D02*
X347352675Y-169463492D01*
X347338201Y-106256217D02*
X347338201Y-110156217D01*
X347338201Y-106256217D02*
X345338201Y-106256217D01*
X345338201Y-106256217D02*
X345338201Y-110156217D01*
X133356060Y-106256217D02*
X133356060Y-110156217D01*
X135356060Y-106256217D02*
X133356060Y-106256217D01*
X135356060Y-106256217D02*
X135356060Y-110156217D01*
X133360849Y-173363492D02*
X133360849Y-169463492D01*
X133360849Y-173363492D02*
X135360849Y-173363492D01*
X135360849Y-173363492D02*
X135360849Y-169463492D01*
X171230074Y-114546000D02*
X168570074Y-114546000D01*
X155430074Y-165466000D02*
X168570074Y-165466000D01*
X155430074Y-114546000D02*
X155430074Y-115876000D01*
X152770074Y-117146000D02*
X152770074Y-165466000D01*
X152770074Y-165466000D02*
X155430074Y-165466000D01*
X154100074Y-114546000D02*
X155430074Y-114546000D01*
X168570074Y-162866000D02*
X168570074Y-114546000D01*
X152770074Y-117146000D02*
X155430074Y-117146000D01*
X171230074Y-162866000D02*
X171230074Y-114546000D01*
X155430074Y-114546000D02*
X168600074Y-114546000D01*
X171230074Y-162866000D02*
X168570074Y-162866000D01*
X168570074Y-165466000D02*
X168570074Y-164136000D01*
X169900074Y-165466000D02*
X168570074Y-165466000D01*
X155430074Y-117146000D02*
X155430074Y-165466000D01*
X311940074Y-140006000D02*
X311940074Y-136146000D01*
X330060074Y-140006000D02*
X330060074Y-143866000D01*
X330060074Y-140006000D02*
X330060074Y-136146000D01*
X311940074Y-143866000D02*
X312185074Y-143866000D01*
X329815074Y-136146000D02*
X329815074Y-134331000D01*
X330060074Y-143866000D02*
X329815074Y-143866000D01*
X311940074Y-136146000D02*
X312185074Y-136146000D01*
X330060074Y-136146000D02*
X329815074Y-136146000D01*
X311940074Y-140006000D02*
X311940074Y-143866000D01*
X227054420Y-135816000D02*
X227335580Y-135816000D01*
X227054420Y-134796000D02*
X227335580Y-134796000D01*
X97585000Y-145265420D02*
X97585000Y-145546580D01*
X98605000Y-145265420D02*
X98605000Y-145546580D01*
X203585000Y-145265420D02*
X203585000Y-145546580D01*
X204605000Y-145265420D02*
X204605000Y-145546580D01*
X333054420Y-134796000D02*
X333335580Y-134796000D01*
X333054420Y-135816000D02*
X333335580Y-135816000D01*
X149857742Y-183033500D02*
X150332258Y-183033500D01*
X149857742Y-184078500D02*
X150332258Y-184078500D01*
X173322500Y-182248981D02*
X173322500Y-181774465D01*
X174367500Y-182248981D02*
X174367500Y-181774465D01*
X163550074Y-90256000D02*
X163550074Y-85856000D01*
X161950074Y-85856000D02*
X162050074Y-85856000D01*
X161950074Y-90256000D02*
X162050074Y-90256000D01*
X160450074Y-85856000D02*
X160450074Y-90256000D01*
X168781252Y-188546000D02*
X167358748Y-188546000D01*
X168781252Y-190366000D02*
X167358748Y-190366000D01*
X151835000Y-201316000D02*
X172155000Y-201316000D01*
X151835000Y-193696000D02*
X172155000Y-193696000D01*
X172155000Y-201316000D02*
X172155000Y-193696000D01*
X151835000Y-193696000D02*
X151835000Y-201316000D01*
X172155000Y-200046000D02*
X151835000Y-200046000D01*
X118060074Y-140006000D02*
X118060074Y-136146000D01*
X118060074Y-140006000D02*
X118060074Y-143866000D01*
X117815074Y-136146000D02*
X117815074Y-134331000D01*
X99940074Y-140006000D02*
X99940074Y-136146000D01*
X118060074Y-143866000D02*
X117815074Y-143866000D01*
X99940074Y-140006000D02*
X99940074Y-143866000D01*
X99940074Y-143866000D02*
X100185074Y-143866000D01*
X99940074Y-136146000D02*
X100185074Y-136146000D01*
X118060074Y-136146000D02*
X117815074Y-136146000D01*
X92946233Y-135796000D02*
X94646233Y-135796000D01*
X93708733Y-141868500D02*
X94333733Y-141868500D01*
X94021233Y-142181000D02*
X94021233Y-141556000D01*
X94010670Y-141316000D02*
X94646233Y-141316000D01*
X94010670Y-141316000D02*
X92946233Y-140251563D01*
X98466233Y-140251563D02*
X98466233Y-135796000D01*
X97401796Y-141316000D02*
X98466233Y-140251563D01*
X92946233Y-140251563D02*
X92946233Y-135796000D01*
X97401796Y-141316000D02*
X96766233Y-141316000D01*
X98466233Y-135796000D02*
X96766233Y-135796000D01*
X167868641Y-182152303D02*
X167868641Y-181871143D01*
X166848641Y-182152303D02*
X166848641Y-181871143D01*
X173820000Y-187896000D02*
X173020000Y-187896000D01*
X173820000Y-191016000D02*
X175620000Y-191016000D01*
X173820000Y-191016000D02*
X173020000Y-191016000D01*
X173820000Y-187896000D02*
X174620000Y-187896000D01*
X154795000Y-184556000D02*
X153395000Y-184556000D01*
X155495000Y-183256000D02*
X155495000Y-183856000D01*
X152695000Y-183856000D02*
X152695000Y-183256000D01*
X153395000Y-182556000D02*
X154795000Y-182556000D01*
X154795000Y-184556000D02*
G75*
G03*
X155495000Y-183856000I1J699999D01*
G01*
X153395000Y-182556000D02*
G75*
G03*
X152695000Y-183256000I0J-700000D01*
G01*
X152695000Y-183856000D02*
G75*
G03*
X153395000Y-184556000I700000J0D01*
G01*
X155495000Y-183256000D02*
G75*
G03*
X154795000Y-182556000I-699999J1D01*
G01*
X309401796Y-141316000D02*
X310466233Y-140251563D01*
X305708733Y-141868500D02*
X306333733Y-141868500D01*
X304946233Y-135796000D02*
X306646233Y-135796000D01*
X310466233Y-140251563D02*
X310466233Y-135796000D01*
X309401796Y-141316000D02*
X308766233Y-141316000D01*
X306021233Y-142181000D02*
X306021233Y-141556000D01*
X310466233Y-135796000D02*
X308766233Y-135796000D01*
X306010670Y-141316000D02*
X304946233Y-140251563D01*
X306010670Y-141316000D02*
X306646233Y-141316000D01*
X304946233Y-140251563D02*
X304946233Y-135796000D01*
X128147296Y-139803419D02*
X128621812Y-139803419D01*
X128147296Y-138758419D02*
X128621812Y-138758419D01*
X223815074Y-136146000D02*
X223815074Y-134331000D01*
X205940074Y-143866000D02*
X206185074Y-143866000D01*
X224060074Y-136146000D02*
X223815074Y-136146000D01*
X224060074Y-140006000D02*
X224060074Y-136146000D01*
X224060074Y-143866000D02*
X223815074Y-143866000D01*
X205940074Y-140006000D02*
X205940074Y-136146000D01*
X205940074Y-140006000D02*
X205940074Y-143866000D01*
X205940074Y-136146000D02*
X206185074Y-136146000D01*
X224060074Y-140006000D02*
X224060074Y-143866000D01*
X121054420Y-134796000D02*
X121335580Y-134796000D01*
X121054420Y-135816000D02*
X121335580Y-135816000D01*
X170368641Y-182152303D02*
X170368641Y-181871143D01*
X169348641Y-182152303D02*
X169348641Y-181871143D01*
X310605000Y-145265420D02*
X310605000Y-145546580D01*
X309585000Y-145265420D02*
X309585000Y-145546580D01*
X177310000Y-189315420D02*
X177310000Y-189596580D01*
X178330000Y-189315420D02*
X178330000Y-189596580D01*
X176867500Y-182248981D02*
X176867500Y-181774465D01*
X175822500Y-182248981D02*
X175822500Y-181774465D01*
X200021233Y-142181000D02*
X200021233Y-141556000D01*
X200010670Y-141316000D02*
X198946233Y-140251563D01*
X203401796Y-141316000D02*
X204466233Y-140251563D01*
X200010670Y-141316000D02*
X200646233Y-141316000D01*
X198946233Y-135796000D02*
X200646233Y-135796000D01*
X199708733Y-141868500D02*
X200333733Y-141868500D01*
X203401796Y-141316000D02*
X202766233Y-141316000D01*
X204466233Y-140251563D02*
X204466233Y-135796000D01*
X204466233Y-135796000D02*
X202766233Y-135796000D01*
X198946233Y-140251563D02*
X198946233Y-135796000D01*
X164560074Y-180306000D02*
X164560074Y-182256000D01*
X159440074Y-180306000D02*
X159440074Y-182256000D01*
X164560074Y-180306000D02*
X164560074Y-176856000D01*
X159440074Y-180306000D02*
X159440074Y-178356000D01*
M02*
