M48
METRIC,TZ
T1C3.200
T2C3.500
T3C6.000
%
G90
G05
T1
X74300Y-74300
X74300Y-140056
X74300Y-205700
X168595Y-74300
X168595Y-205700
X261495Y-74300
X261495Y-205700
X355700Y-74300
X355700Y-140056
X355700Y-205700
T2
X83995Y-78000
X83995Y-184000
X108995Y-99000
X108995Y-205000
X133995Y-78000
X133995Y-184000
X189995Y-184000
X189995Y-78000
X214995Y-205000
X214995Y-99000
X239995Y-184000
X239995Y-78000
X295995Y-78000
X295995Y-184000
X320995Y-99000
X320995Y-205000
X345995Y-78000
X345995Y-184000
T3
X99495Y-87000
X99495Y-193000
X205495Y-193000
X205495Y-87000
X311495Y-87000
X311495Y-193000
T0
M30
