G04 #@! TF.GenerationSoftware,KiCad,Pcbnew,(6.0.10)*
G04 #@! TF.CreationDate,2023-03-21T22:54:38-07:00*
G04 #@! TF.ProjectId,Test,54657374-2e6b-4696-9361-645f70636258,rev?*
G04 #@! TF.SameCoordinates,Original*
G04 #@! TF.FileFunction,Paste,Bot*
G04 #@! TF.FilePolarity,Positive*
%FSLAX46Y46*%
G04 Gerber Fmt 4.6, Leading zero omitted, Abs format (unit mm)*
G04 Created by KiCad (PCBNEW (6.0.10)) date 2023-03-21 22:54:38*
%MOMM*%
%LPD*%
G01*
G04 APERTURE LIST*
G04 Aperture macros list*
%AMRoundRect*
0 Rectangle with rounded corners*
0 $1 Rounding radius*
0 $2 $3 $4 $5 $6 $7 $8 $9 X,Y pos of 4 corners*
0 Add a 4 corners polygon primitive as box body*
4,1,4,$2,$3,$4,$5,$6,$7,$8,$9,$2,$3,0*
0 Add four circle primitives for the rounded corners*
1,1,$1+$1,$2,$3*
1,1,$1+$1,$4,$5*
1,1,$1+$1,$6,$7*
1,1,$1+$1,$8,$9*
0 Add four rect primitives between the rounded corners*
20,1,$1+$1,$2,$3,$4,$5,0*
20,1,$1+$1,$4,$5,$6,$7,0*
20,1,$1+$1,$6,$7,$8,$9,0*
20,1,$1+$1,$8,$9,$2,$3,0*%
G04 Aperture macros list end*
%ADD10R,0.800000X1.800000*%
%ADD11RoundRect,0.225000X-0.225000X-0.250000X0.225000X-0.250000X0.225000X0.250000X-0.225000X0.250000X0*%
G04 APERTURE END LIST*
D10*
X111471190Y-191353912D03*
X113371190Y-191353912D03*
X112421190Y-194653912D03*
D11*
X111642701Y-188669164D03*
X113192701Y-188669164D03*
D10*
X333477760Y-191345317D03*
X335377760Y-191345317D03*
X334427760Y-194645317D03*
D11*
X217645728Y-188671256D03*
X219195728Y-188671256D03*
X323643862Y-188672432D03*
X325193862Y-188672432D03*
D10*
X227475244Y-85353542D03*
X229375244Y-85353542D03*
X228425244Y-88653542D03*
X217475244Y-85353542D03*
X219375244Y-85353542D03*
X218425244Y-88653542D03*
D11*
X227646755Y-82670190D03*
X229196755Y-82670190D03*
X217646755Y-82670190D03*
X219196755Y-82670190D03*
X333648826Y-82663248D03*
X335198826Y-82663248D03*
X121641135Y-82668760D03*
X123191135Y-82668760D03*
X121642701Y-188669164D03*
X123192701Y-188669164D03*
D10*
X333468244Y-85339542D03*
X335368244Y-85339542D03*
X334418244Y-88639542D03*
X111473113Y-85348971D03*
X113373113Y-85348971D03*
X112423113Y-88648971D03*
D11*
X111641135Y-82668760D03*
X113191135Y-82668760D03*
D10*
X227465145Y-191349723D03*
X229365145Y-191349723D03*
X228415145Y-194649723D03*
D11*
X333644937Y-188672432D03*
X335194937Y-188672432D03*
X323645134Y-82659899D03*
X325195134Y-82659899D03*
D10*
X121473113Y-85348971D03*
X123373113Y-85348971D03*
X122423113Y-88648971D03*
X121471190Y-191353912D03*
X123371190Y-191353912D03*
X122421190Y-194653912D03*
D11*
X227645728Y-188671256D03*
X229195728Y-188671256D03*
D10*
X217465145Y-191349723D03*
X219365145Y-191349723D03*
X218415145Y-194649723D03*
X323474967Y-191345317D03*
X325374967Y-191345317D03*
X324424967Y-194645317D03*
X323465785Y-85344707D03*
X325365785Y-85344707D03*
X324415785Y-88644707D03*
M02*
